<?xml version="1.0" encoding="UTF-8"?><svg id="a" xmlns="http://www.w3.org/2000/svg" xmlns:xlink="http://www.w3.org/1999/xlink" viewBox="0 0 4800 697.78"><defs><clipPath id="b"><rect width="4800" height="697.78" fill="none"/></clipPath></defs><g clip-path="url(#b)"><rect x="2.22" y="261.44" width="1010.22" height="305.78" rx="34.4" ry="34.4" fill="#ff8a88"/><path d="M218.91,456.62c-5.86,0-11.15-1.15-15.89-3.46-4.74-2.31-8.51-5.86-11.32-10.63-2.81-4.77-4.21-10.78-4.21-18.03v-50.15h13.86v50.27c0,4.39.71,8.01,2.14,10.86,1.42,2.85,3.49,4.99,6.18,6.41,2.7,1.43,5.86,2.14,9.48,2.14s6.85-.71,9.47-2.14c2.62-1.42,4.66-3.56,6.12-6.41,1.46-2.85,2.2-6.47,2.2-10.86v-50.27h13.87v50.15c0,7.24-1.45,13.25-4.34,18.03-2.89,4.78-6.74,8.32-11.55,10.63-4.82,2.31-10.15,3.46-16.01,3.46Z" fill="#fff"/><path d="M265.94,455.24v-58.24h12.25l.92,9.7c1.77-3.39,4.31-6.09,7.63-8.09,3.31-2,7.24-3,11.78-3s8.71.98,12.02,2.95,5.86,4.84,7.63,8.61c1.78,3.78,2.66,8.48,2.66,14.1v33.97h-13.75v-32.59c0-5.01-1.08-8.82-3.24-11.44-2.16-2.62-5.36-3.93-9.59-3.93-2.77,0-5.24.68-7.4,2.02-2.16,1.35-3.87,3.26-5.14,5.72-1.27,2.47-1.91,5.51-1.91,9.13v31.09h-13.87Z" fill="#fff"/><path d="M361.39,456.62c-5.39,0-10.19-1.33-14.39-3.98s-7.47-6.28-9.82-10.86c-2.35-4.58-3.52-9.8-3.52-15.66s1.19-11.19,3.59-15.77c2.38-4.58,5.72-8.19,10-10.81,4.28-2.62,9.11-3.93,14.5-3.93,4.31,0,8.11.83,11.38,2.48,3.28,1.66,5.88,3.99,7.8,6.99v-33.05h13.87v83.2h-12.36l-1.39-8.55c-1.23,1.85-2.73,3.51-4.51,4.97-1.78,1.46-3.91,2.66-6.41,3.58s-5.41,1.38-8.72,1.38ZM364.39,444.61c3.39,0,6.34-.79,8.84-2.37,2.5-1.58,4.43-3.75,5.78-6.53,1.35-2.77,2.02-5.97,2.02-9.59s-.68-6.82-2.02-9.59c-1.35-2.77-3.28-4.95-5.78-6.53-2.5-1.58-5.45-2.37-8.84-2.37-3.16,0-6.01.77-8.55,2.31-2.54,1.55-4.51,3.72-5.89,6.53-1.38,2.81-2.08,6.03-2.08,9.65s.69,6.91,2.08,9.65c1.39,2.73,3.35,4.89,5.89,6.47s5.39,2.37,8.55,2.37Z" fill="#fff"/><path d="M437.54,456.62c-5.78,0-10.86-1.27-15.25-3.81-4.39-2.54-7.82-6.09-10.29-10.63-2.47-4.54-3.7-9.78-3.7-15.71s1.22-11.44,3.64-16.06c2.43-4.62,5.86-8.24,10.28-10.86,4.43-2.62,9.57-3.93,15.43-3.93s10.65,1.27,14.85,3.82c4.2,2.54,7.47,5.93,9.82,10.17,2.35,4.24,3.52,9.05,3.52,14.44v2.48c0,.89-.08,1.87-.23,2.95h-47.38v-8.9h33.62c-.15-4.16-1.58-7.47-4.28-9.94s-6.05-3.7-10.05-3.7c-2.85,0-5.47.66-7.86,1.97-2.39,1.31-4.28,3.26-5.66,5.83-1.38,2.58-2.08,5.84-2.08,9.77v3.35c0,3.62.67,6.72,2.02,9.3,1.35,2.58,3.18,4.57,5.49,5.95,2.31,1.39,4.97,2.08,7.97,2.08,3.24,0,5.91-.69,8.03-2.08,2.12-1.38,3.64-3.19,4.56-5.43h14.1c-.92,3.55-2.64,6.76-5.14,9.65-2.5,2.89-5.57,5.16-9.19,6.82-3.62,1.66-7.7,2.48-12.25,2.48Z" fill="#fff"/><path d="M478.79,455.24v-58.24h12.37l1.15,10.86c1.46-2.54,3.2-4.72,5.2-6.53,2-1.81,4.43-3.22,7.28-4.22,2.85-1,6.01-1.5,9.47-1.5v14.56h-4.97c-2.31,0-4.51.29-6.58.86-2.08.58-3.87,1.52-5.37,2.83-1.51,1.31-2.66,3.08-3.47,5.31-.81,2.24-1.22,4.97-1.22,8.21v27.85h-13.87Z" fill="#fff"/><path d="M547.77,456.62c-5.24,0-9.74-.85-13.52-2.54s-6.76-4.01-8.95-6.94c-2.2-2.93-3.49-6.32-3.87-10.17h13.87c.31,1.62,1,3.09,2.08,4.39,1.08,1.31,2.47,2.37,4.16,3.18,1.69.81,3.73,1.22,6.12,1.22s4.18-.33,5.6-.98c1.42-.66,2.5-1.52,3.23-2.6.73-1.08,1.1-2.23,1.1-3.46,0-1.93-.48-3.37-1.45-4.34-.96-.96-2.39-1.75-4.28-2.37s-4.21-1.16-6.99-1.62c-2.62-.54-5.24-1.19-7.86-1.97-2.62-.77-4.95-1.79-6.99-3.06-2.04-1.27-3.68-2.87-4.91-4.8s-1.85-4.28-1.85-7.05c0-3.39.9-6.45,2.72-9.19,1.81-2.73,4.47-4.87,7.97-6.41,3.5-1.54,7.6-2.31,12.3-2.31,6.86,0,12.27,1.54,16.24,4.62,3.97,3.08,6.34,7.43,7.11,13.06h-13.17c-.46-2.15-1.56-3.83-3.29-5.03-1.73-1.19-4.06-1.79-6.99-1.79s-5.3.56-6.88,1.68-2.37,2.6-2.37,4.45c0,1.23.48,2.31,1.44,3.23s2.35,1.75,4.16,2.49,4.1,1.37,6.88,1.91c4.31.77,8.12,1.75,11.44,2.95,3.31,1.19,5.93,2.91,7.86,5.14s2.89,5.39,2.89,9.47c0,3.78-.96,7.07-2.89,9.88s-4.66,5.01-8.2,6.59c-3.55,1.58-7.78,2.37-12.71,2.37Z" fill="#fff"/><path d="M608.32,455.24c-3.93,0-7.34-.62-10.23-1.85-2.89-1.23-5.12-3.27-6.7-6.12s-2.37-6.7-2.37-11.55v-27.16h-10.05v-11.55h10.05l1.62-15.37h12.25v15.37h15.72v11.55h-15.72v27.16c0,2.93.62,4.95,1.85,6.06,1.23,1.12,3.39,1.68,6.47,1.68h7.17v11.79h-10.06Z" fill="#fff"/><path d="M651.08,456.62c-4.7,0-8.65-.81-11.84-2.43-3.2-1.61-5.57-3.77-7.11-6.47-1.54-2.7-2.31-5.66-2.31-8.9,0-3.62.94-6.78,2.83-9.47,1.89-2.7,4.68-4.8,8.38-6.3s8.28-2.25,13.75-2.25h14.67c0-3.08-.44-5.64-1.33-7.68-.89-2.04-2.22-3.59-3.99-4.62-1.77-1.04-4.08-1.56-6.93-1.56-3.16,0-5.86.73-8.09,2.2s-3.62,3.66-4.16,6.59h-13.64c.46-4.16,1.87-7.74,4.22-10.75,2.35-3.01,5.43-5.32,9.24-6.94,3.81-1.62,7.95-2.43,12.42-2.43,5.55,0,10.26.95,14.15,2.83,3.89,1.89,6.86,4.57,8.9,8.03,2.04,3.46,3.06,7.7,3.06,12.71v36.05h-11.91l-1.38-9.24c-.77,1.54-1.75,2.95-2.95,4.22s-2.58,2.39-4.16,3.35c-1.58.96-3.33,1.71-5.26,2.25s-4.12.81-6.58.81ZM654.19,445.64c2.24,0,4.24-.4,6.01-1.21,1.77-.81,3.27-1.97,4.51-3.47s2.21-3.19,2.95-5.09c.73-1.88,1.18-3.87,1.33-5.95v-.23h-12.71c-2.77,0-5.03.35-6.76,1.04-1.73.69-3.03,1.64-3.87,2.83s-1.27,2.6-1.27,4.22.41,3.12,1.22,4.28,1.97,2.04,3.47,2.66,3.22.92,5.14.92Z" fill="#fff"/><path d="M698.1,455.24v-58.24h12.25l.92,9.7c1.77-3.39,4.31-6.09,7.63-8.09,3.31-2,7.24-3,11.78-3s8.71.98,12.02,2.95,5.86,4.84,7.63,8.61c1.78,3.78,2.66,8.48,2.66,14.1v33.97h-13.75v-32.59c0-5.01-1.08-8.82-3.24-11.44-2.16-2.62-5.36-3.93-9.59-3.93-2.77,0-5.24.68-7.4,2.02-2.16,1.35-3.87,3.26-5.14,5.72-1.27,2.47-1.91,5.51-1.91,9.13v31.09h-13.87Z" fill="#fff"/><path d="M793.56,456.62c-5.39,0-10.19-1.33-14.39-3.98s-7.47-6.28-9.82-10.86c-2.35-4.58-3.52-9.8-3.52-15.66s1.19-11.19,3.59-15.77c2.38-4.58,5.72-8.19,10-10.81,4.28-2.62,9.11-3.93,14.5-3.93,4.31,0,8.11.83,11.38,2.48,3.28,1.66,5.88,3.99,7.8,6.99v-33.05h13.87v83.2h-12.36l-1.39-8.55c-1.23,1.85-2.73,3.51-4.51,4.97-1.78,1.46-3.91,2.66-6.41,3.58s-5.41,1.38-8.72,1.38ZM796.56,444.61c3.39,0,6.34-.79,8.84-2.37,2.5-1.58,4.43-3.75,5.78-6.53,1.35-2.77,2.02-5.97,2.02-9.59s-.68-6.82-2.02-9.59c-1.35-2.77-3.28-4.95-5.78-6.53-2.5-1.58-5.45-2.37-8.84-2.37-3.16,0-6.01.77-8.55,2.31-2.54,1.55-4.51,3.72-5.89,6.53-1.38,2.81-2.08,6.03-2.08,9.65s.69,6.91,2.08,9.65c1.39,2.73,3.35,4.89,5.89,6.47s5.39,2.37,8.55,2.37Z" fill="#fff"/><rect x="1205.02" y="261.44" width="712" height="305.78" rx="34.4" ry="34.4" fill="#ff8a88"/><path d="M1390.99,455.24v-80.89h26.12c9.4,0,17.16,1.66,23.29,4.97s10.67,7.99,13.64,14.04c2.96,6.05,4.45,13.23,4.45,21.55s-1.48,15.27-4.45,21.32c-2.97,6.05-7.51,10.73-13.64,14.04-6.12,3.32-13.88,4.97-23.29,4.97h-26.12ZM1404.85,443.45h11.56c6.93,0,12.44-1.13,16.52-3.41,4.08-2.27,6.99-5.55,8.72-9.82s2.6-9.38,2.6-15.31-.87-11.15-2.6-15.43-4.64-7.59-8.72-9.94c-4.08-2.35-9.59-3.52-16.52-3.52h-11.56v57.43Z" fill="#fff"/><path d="M1498.8,456.62c-5.78,0-10.86-1.27-15.25-3.81-4.39-2.54-7.82-6.09-10.29-10.63-2.47-4.54-3.7-9.78-3.7-15.71s1.22-11.44,3.64-16.06,5.86-8.24,10.28-10.86c4.43-2.62,9.57-3.93,15.43-3.93s10.65,1.27,14.85,3.82c4.2,2.54,7.47,5.93,9.82,10.17,2.35,4.24,3.52,9.05,3.52,14.44v2.48c0,.89-.08,1.87-.23,2.95h-47.38v-8.9h33.62c-.15-4.16-1.58-7.47-4.28-9.94s-6.05-3.7-10.05-3.7c-2.85,0-5.47.66-7.86,1.97-2.39,1.31-4.28,3.26-5.66,5.83-1.38,2.58-2.08,5.84-2.08,9.77v3.35c0,3.62.67,6.72,2.02,9.3,1.35,2.58,3.18,4.57,5.49,5.95,2.31,1.39,4.97,2.08,7.97,2.08,3.24,0,5.91-.69,8.03-2.08,2.12-1.38,3.64-3.19,4.56-5.43h14.1c-.92,3.55-2.64,6.76-5.14,9.65-2.5,2.89-5.57,5.16-9.19,6.82-3.62,1.66-7.7,2.48-12.25,2.48Z" fill="#fff"/><path d="M1542.82,455.24v-46.68h-8.32v-11.55h8.32v-6.36c0-4.47.75-8.07,2.26-10.8,1.5-2.73,3.68-4.72,6.53-5.95,2.85-1.23,6.24-1.85,10.17-1.85h6.24v11.78h-4.16c-2.54,0-4.38.52-5.49,1.56-1.12,1.04-1.68,2.83-1.68,5.37v6.24h36.05v58.24h-13.87v-46.68h-22.19v46.68h-13.87ZM1585.81,388.1c-2.47,0-4.53-.77-6.18-2.31s-2.48-3.5-2.48-5.89.82-4.22,2.48-5.72,3.72-2.25,6.18-2.25c2.62,0,4.75.75,6.41,2.25s2.49,3.41,2.49,5.72-.83,4.35-2.49,5.89-3.79,2.31-6.41,2.31Z" fill="#fff"/><path d="M1608.92,455.24v-58.24h12.25l.92,9.7c1.77-3.39,4.31-6.09,7.63-8.09,3.31-2,7.24-3,11.78-3s8.71.98,12.02,2.95,5.86,4.84,7.63,8.61c1.78,3.78,2.66,8.48,2.66,14.1v33.97h-13.75v-32.59c0-5.01-1.08-8.82-3.24-11.44-2.16-2.62-5.36-3.93-9.59-3.93-2.77,0-5.24.68-7.4,2.02-2.16,1.35-3.87,3.26-5.14,5.72-1.27,2.47-1.91,5.51-1.91,9.13v31.09h-13.87Z" fill="#fff"/><path d="M1705.87,456.62c-5.78,0-10.86-1.27-15.25-3.81-4.39-2.54-7.82-6.09-10.29-10.63-2.47-4.54-3.7-9.78-3.7-15.71s1.22-11.44,3.64-16.06,5.86-8.24,10.28-10.86c4.43-2.62,9.57-3.93,15.43-3.93s10.65,1.27,14.85,3.82c4.2,2.54,7.47,5.93,9.82,10.17,2.35,4.24,3.52,9.05,3.52,14.44v2.48c0,.89-.08,1.87-.23,2.95h-47.38v-8.9h33.62c-.15-4.16-1.58-7.47-4.28-9.94s-6.05-3.7-10.05-3.7c-2.85,0-5.47.66-7.86,1.97-2.39,1.31-4.28,3.26-5.66,5.83-1.38,2.58-2.08,5.84-2.08,9.77v3.35c0,3.62.67,6.72,2.02,9.3,1.35,2.58,3.18,4.57,5.49,5.95,2.31,1.39,4.97,2.08,7.97,2.08,3.24,0,5.91-.69,8.03-2.08,2.12-1.38,3.64-3.19,4.56-5.43h14.1c-.92,3.55-2.64,6.76-5.14,9.65-2.5,2.89-5.57,5.16-9.19,6.82-3.62,1.66-7.7,2.48-12.25,2.48Z" fill="#fff"/><rect x="2116.98" y="261.44" width="669.33" height="305.78" rx="34.4" ry="34.4" fill="#ff8a88"/><path d="M2282.76,455.24v-80.89h13.87v80.89h-13.87Z" fill="#fff"/><path d="M2338.23,456.62c-5.39,0-10.19-1.33-14.39-3.98s-7.47-6.28-9.82-10.86c-2.35-4.58-3.52-9.8-3.52-15.66s1.19-11.19,3.59-15.77c2.38-4.58,5.72-8.19,10-10.81,4.28-2.62,9.11-3.93,14.5-3.93,4.31,0,8.11.83,11.38,2.48,3.28,1.66,5.88,3.99,7.8,6.99v-33.05h13.87v83.2h-12.36l-1.39-8.55c-1.23,1.85-2.73,3.51-4.51,4.97-1.78,1.46-3.91,2.66-6.41,3.58s-5.41,1.38-8.72,1.38ZM2341.23,444.61c3.39,0,6.34-.79,8.84-2.37,2.5-1.58,4.43-3.75,5.78-6.53,1.35-2.77,2.02-5.97,2.02-9.59s-.68-6.82-2.02-9.59c-1.35-2.77-3.28-4.95-5.78-6.53-2.5-1.58-5.45-2.37-8.84-2.37-3.16,0-6.01.77-8.55,2.31-2.54,1.55-4.51,3.72-5.89,6.53-1.38,2.81-2.08,6.03-2.08,9.65s.69,6.91,2.08,9.65c1.39,2.73,3.35,4.89,5.89,6.47s5.39,2.37,8.55,2.37Z" fill="#fff"/><path d="M2414.38,456.62c-5.78,0-10.86-1.27-15.25-3.81-4.39-2.54-7.82-6.09-10.29-10.63-2.47-4.54-3.7-9.78-3.7-15.71s1.22-11.44,3.64-16.06,5.86-8.24,10.28-10.86c4.43-2.62,9.57-3.93,15.43-3.93s10.65,1.27,14.85,3.82c4.2,2.54,7.47,5.93,9.82,10.17,2.35,4.24,3.52,9.05,3.52,14.44v2.48c0,.89-.08,1.87-.23,2.95h-47.38v-8.9h33.62c-.15-4.16-1.58-7.47-4.28-9.94s-6.05-3.7-10.05-3.7c-2.85,0-5.47.66-7.86,1.97-2.39,1.31-4.28,3.26-5.66,5.83-1.38,2.58-2.08,5.84-2.08,9.77v3.35c0,3.62.67,6.72,2.02,9.3,1.35,2.58,3.18,4.57,5.49,5.95,2.31,1.39,4.97,2.08,7.97,2.08,3.24,0,5.91-.69,8.03-2.08,2.12-1.38,3.64-3.19,4.56-5.43h14.1c-.92,3.55-2.64,6.76-5.14,9.65-2.5,2.89-5.57,5.16-9.19,6.82-3.62,1.66-7.7,2.48-12.25,2.48Z" fill="#fff"/><path d="M2474.93,456.62c-4.7,0-8.65-.81-11.84-2.43-3.2-1.61-5.57-3.77-7.11-6.47-1.54-2.7-2.31-5.66-2.31-8.9,0-3.62.94-6.78,2.83-9.47,1.89-2.7,4.68-4.8,8.38-6.3s8.28-2.25,13.75-2.25h14.67c0-3.08-.44-5.64-1.33-7.68-.89-2.04-2.22-3.59-3.99-4.62-1.77-1.04-4.08-1.56-6.93-1.56-3.16,0-5.86.73-8.09,2.2s-3.62,3.66-4.16,6.59h-13.64c.46-4.16,1.87-7.74,4.22-10.75,2.35-3.01,5.43-5.32,9.24-6.94,3.81-1.62,7.95-2.43,12.42-2.43,5.55,0,10.26.95,14.15,2.83,3.89,1.89,6.86,4.57,8.9,8.03,2.04,3.46,3.06,7.7,3.06,12.71v36.05h-11.91l-1.38-9.24c-.77,1.54-1.75,2.95-2.95,4.22s-2.58,2.39-4.16,3.35c-1.58.96-3.33,1.71-5.26,2.25s-4.12.81-6.58.81ZM2478.05,445.64c2.24,0,4.24-.4,6.01-1.21,1.77-.81,3.27-1.97,4.51-3.47s2.21-3.19,2.95-5.09c.73-1.88,1.18-3.87,1.33-5.95v-.23h-12.71c-2.77,0-5.03.35-6.76,1.04-1.73.69-3.03,1.64-3.87,2.83s-1.27,2.6-1.27,4.22.41,3.12,1.22,4.28,1.97,2.04,3.47,2.66,3.22.92,5.14.92Z" fill="#fff"/><path d="M2546.23,455.24c-3.93,0-7.34-.62-10.23-1.85-2.89-1.23-5.12-3.27-6.7-6.12s-2.37-6.7-2.37-11.55v-27.16h-10.05v-11.55h10.05l1.62-15.37h12.25v15.37h15.72v11.55h-15.72v27.16c0,2.93.62,4.95,1.85,6.06,1.23,1.12,3.39,1.68,6.47,1.68h7.17v11.79h-10.06Z" fill="#fff"/><path d="M2595.34,456.62c-5.78,0-10.86-1.27-15.25-3.81-4.39-2.54-7.82-6.09-10.29-10.63-2.47-4.54-3.7-9.78-3.7-15.71s1.22-11.44,3.64-16.06c2.43-4.62,5.86-8.24,10.28-10.86,4.43-2.62,9.57-3.93,15.43-3.93s10.65,1.27,14.85,3.82c4.2,2.54,7.47,5.93,9.82,10.17,2.35,4.24,3.52,9.05,3.52,14.44v2.48c0,.89-.08,1.87-.23,2.95h-47.38v-8.9h33.62c-.15-4.16-1.58-7.47-4.28-9.94s-6.05-3.7-10.05-3.7c-2.85,0-5.47.66-7.86,1.97-2.39,1.31-4.28,3.26-5.66,5.83-1.38,2.58-2.08,5.84-2.08,9.77v3.35c0,3.62.67,6.72,2.02,9.3,1.35,2.58,3.18,4.57,5.49,5.95,2.31,1.39,4.97,2.08,7.97,2.08,3.24,0,5.91-.69,8.03-2.08,2.12-1.38,3.64-3.19,4.56-5.43h14.1c-.92,3.55-2.64,6.76-5.14,9.65-2.5,2.89-5.57,5.16-9.19,6.82-3.62,1.66-7.7,2.48-12.25,2.48Z" fill="#fff"/><rect x="2986.27" y="261.44" width="588.44" height="305.78" rx="34.4" ry="34.4" fill="#ff8a88"/><path d="M3191.05,455.24v-69.68h-23.81v-11.21h61.36v11.21h-23.8v69.68h-13.75Z" fill="#fff"/><path d="M3256.45,456.62c-5.77,0-10.86-1.27-15.25-3.81s-7.82-6.09-10.29-10.63c-2.47-4.54-3.7-9.78-3.7-15.71s1.22-11.44,3.65-16.06c2.42-4.62,5.85-8.24,10.28-10.86,4.44-2.62,9.57-3.93,15.43-3.93s10.64,1.27,14.84,3.82c4.2,2.54,7.47,5.93,9.83,10.17,2.34,4.24,3.52,9.05,3.52,14.44v2.48c0,.89-.08,1.87-.23,2.95h-47.38v-8.9h33.63c-.16-4.16-1.58-7.47-4.28-9.94-2.69-2.47-6.04-3.7-10.05-3.7-2.85,0-5.47.66-7.86,1.97s-4.27,3.26-5.66,5.83c-1.39,2.58-2.08,5.84-2.08,9.77v3.35c0,3.62.68,6.72,2.02,9.3,1.35,2.58,3.18,4.57,5.49,5.95,2.32,1.39,4.97,2.08,7.98,2.08,3.24,0,5.91-.69,8.03-2.08,2.12-1.38,3.64-3.19,4.57-5.43h14.1c-.92,3.55-2.64,6.76-5.14,9.65-2.51,2.89-5.57,5.16-9.19,6.82-3.62,1.66-7.7,2.48-12.25,2.48Z" fill="#fff"/><path d="M3320.82,456.62c-5.24,0-9.75-.85-13.52-2.54s-6.75-4.01-8.95-6.94c-2.2-2.93-3.49-6.32-3.87-10.17h13.86c.31,1.62,1,3.09,2.08,4.39,1.08,1.31,2.47,2.37,4.16,3.18,1.69.81,3.73,1.22,6.13,1.22s4.18-.33,5.6-.98,2.5-1.52,3.24-2.6c.73-1.08,1.09-2.23,1.09-3.46,0-1.93-.48-3.37-1.44-4.34-.96-.96-2.39-1.75-4.28-2.37-1.88-.62-4.21-1.16-6.99-1.62-2.62-.54-5.24-1.19-7.86-1.97-2.62-.77-4.95-1.79-7-3.06-2.04-1.27-3.67-2.87-4.9-4.8s-1.85-4.28-1.85-7.05c0-3.39.9-6.45,2.72-9.19,1.81-2.73,4.46-4.87,7.97-6.41,3.51-1.54,7.6-2.31,12.31-2.31,6.86,0,12.27,1.54,16.23,4.62s6.34,7.43,7.11,13.06h-13.18c-.46-2.15-1.55-3.83-3.29-5.03-1.74-1.19-4.06-1.79-7-1.79s-5.3.56-6.88,1.68-2.36,2.6-2.36,4.45c0,1.23.48,2.31,1.44,3.23s2.35,1.75,4.16,2.49c1.81.73,4.11,1.37,6.88,1.91,4.31.77,8.12,1.75,11.44,2.95s5.93,2.91,7.86,5.14,2.89,5.39,2.89,9.47c0,3.78-.96,7.07-2.89,9.88s-4.66,5.01-8.2,6.59c-3.54,1.58-7.78,2.37-12.71,2.37Z" fill="#fff"/><path d="M3381.36,455.24c-3.93,0-7.34-.62-10.23-1.85s-5.12-3.27-6.7-6.12-2.37-6.7-2.37-11.55v-27.16h-10.05v-11.55h10.05l1.61-15.37h12.25v15.37h15.72v11.55h-15.72v27.16c0,2.93.62,4.95,1.85,6.06,1.23,1.12,3.39,1.68,6.48,1.68h7.16v11.79h-10.05Z" fill="#fff"/><rect x="3774.67" y="261.44" width="1023.11" height="305.78" rx="34.4" ry="34.4" fill="#ff8a88"/><path d="M3961.69,455.24v-80.89h51.65v11.21h-37.79v23.69h30.86v10.98h-30.86v35.01h-13.87Z" fill="#fff"/><path d="M4032.29,387.75c-2.54,0-4.64-.79-6.3-2.37s-2.48-3.52-2.48-5.84.82-4.33,2.48-5.83,3.76-2.25,6.3-2.25,4.64.75,6.3,2.25,2.49,3.45,2.49,5.83-.83,4.26-2.49,5.84-3.75,2.37-6.3,2.37ZM4025.36,455.24v-58.24h13.87v58.24h-13.87Z" fill="#fff"/><path d="M4055.4,455.24v-58.24h12.25l.92,9.7c1.77-3.39,4.31-6.09,7.63-8.09,3.31-2,7.24-3,11.78-3s8.71.98,12.02,2.95,5.86,4.84,7.63,8.61c1.78,3.78,2.66,8.48,2.66,14.1v33.97h-13.75v-32.59c0-5.01-1.08-8.82-3.24-11.44-2.16-2.62-5.36-3.93-9.59-3.93-2.77,0-5.24.68-7.4,2.02-2.16,1.35-3.87,3.26-5.14,5.72-1.27,2.47-1.91,5.51-1.91,9.13v31.09h-13.87Z" fill="#fff"/><path d="M4144.5,456.62c-4.7,0-8.65-.81-11.84-2.43-3.2-1.61-5.57-3.77-7.11-6.47-1.54-2.7-2.31-5.66-2.31-8.9,0-3.62.94-6.78,2.83-9.47,1.89-2.7,4.68-4.8,8.38-6.3s8.28-2.25,13.75-2.25h14.67c0-3.08-.44-5.64-1.33-7.68-.89-2.04-2.22-3.59-3.99-4.62-1.77-1.04-4.08-1.56-6.93-1.56-3.16,0-5.86.73-8.09,2.2s-3.62,3.66-4.16,6.59h-13.64c.46-4.16,1.87-7.74,4.22-10.75,2.35-3.01,5.43-5.32,9.24-6.94,3.81-1.62,7.95-2.43,12.42-2.43,5.55,0,10.26.95,14.15,2.83,3.89,1.89,6.86,4.57,8.9,8.03,2.04,3.46,3.06,7.7,3.06,12.71v36.05h-11.91l-1.38-9.24c-.77,1.54-1.75,2.95-2.95,4.22s-2.58,2.39-4.16,3.35c-1.58.96-3.33,1.71-5.26,2.25s-4.12.81-6.58.81ZM4147.62,445.64c2.24,0,4.24-.4,6.01-1.21,1.77-.81,3.27-1.97,4.51-3.47s2.21-3.19,2.95-5.09c.73-1.88,1.18-3.87,1.33-5.95v-.23h-12.71c-2.77,0-5.03.35-6.76,1.04-1.73.69-3.03,1.64-3.87,2.83s-1.27,2.6-1.27,4.22.41,3.12,1.22,4.28,1.97,2.04,3.47,2.66,3.22.92,5.14.92Z" fill="#fff"/><path d="M4191.53,455.24v-83.2h13.87v83.2h-13.87Z" fill="#fff"/><path d="M4249.42,455.24v-80.89h26.12c9.4,0,17.16,1.66,23.29,4.97,6.12,3.31,10.67,7.99,13.64,14.04,2.96,6.05,4.45,13.23,4.45,21.55s-1.48,15.27-4.45,21.32c-2.97,6.05-7.51,10.73-13.64,14.04-6.12,3.32-13.88,4.97-23.29,4.97h-26.12ZM4263.29,443.45h11.56c6.93,0,12.44-1.13,16.52-3.41,4.08-2.27,6.99-5.55,8.72-9.82s2.6-9.38,2.6-15.31-.87-11.15-2.6-15.43-4.64-7.59-8.72-9.94c-4.08-2.35-9.59-3.52-16.52-3.52h-11.56v57.43Z" fill="#fff"/><path d="M4357.23,456.62c-5.78,0-10.86-1.27-15.25-3.81-4.39-2.54-7.82-6.09-10.29-10.63-2.47-4.54-3.7-9.78-3.7-15.71s1.22-11.44,3.64-16.06,5.86-8.24,10.28-10.86c4.43-2.62,9.57-3.93,15.43-3.93s10.65,1.27,14.85,3.82c4.2,2.54,7.47,5.93,9.82,10.17,2.35,4.24,3.52,9.05,3.52,14.44v2.48c0,.89-.08,1.87-.23,2.95h-47.38v-8.9h33.62c-.15-4.16-1.58-7.47-4.28-9.94s-6.05-3.7-10.05-3.7c-2.85,0-5.47.66-7.86,1.97-2.39,1.31-4.28,3.26-5.66,5.83-1.38,2.58-2.08,5.84-2.08,9.77v3.35c0,3.62.67,6.72,2.02,9.3,1.35,2.58,3.18,4.57,5.49,5.95,2.31,1.39,4.97,2.08,7.97,2.08,3.24,0,5.91-.69,8.03-2.08,2.12-1.38,3.64-3.19,4.56-5.43h14.1c-.92,3.55-2.64,6.76-5.14,9.65-2.5,2.89-5.57,5.16-9.19,6.82-3.62,1.66-7.7,2.48-12.25,2.48Z" fill="#fff"/><path d="M4421.59,456.62c-5.24,0-9.74-.85-13.52-2.54s-6.76-4.01-8.95-6.94c-2.2-2.93-3.49-6.32-3.87-10.17h13.87c.31,1.62,1,3.09,2.08,4.39,1.08,1.31,2.47,2.37,4.16,3.18,1.69.81,3.73,1.22,6.12,1.22s4.18-.33,5.6-.98c1.42-.66,2.5-1.52,3.23-2.6.73-1.08,1.1-2.23,1.1-3.46,0-1.93-.48-3.37-1.45-4.34-.96-.96-2.39-1.75-4.28-2.37s-4.21-1.16-6.99-1.62c-2.62-.54-5.24-1.19-7.86-1.97-2.62-.77-4.95-1.79-6.99-3.06-2.04-1.27-3.68-2.87-4.91-4.8s-1.85-4.28-1.85-7.05c0-3.39.9-6.45,2.72-9.19,1.81-2.73,4.47-4.87,7.97-6.41,3.5-1.54,7.6-2.31,12.3-2.31,6.86,0,12.27,1.54,16.24,4.62,3.97,3.08,6.34,7.43,7.11,13.06h-13.17c-.46-2.15-1.56-3.83-3.29-5.03-1.73-1.19-4.06-1.79-6.99-1.79s-5.3.56-6.88,1.68-2.37,2.6-2.37,4.45c0,1.23.48,2.31,1.44,3.23s2.35,1.75,4.16,2.49,4.1,1.37,6.88,1.91c4.31.77,8.12,1.75,11.44,2.95,3.31,1.19,5.93,2.91,7.86,5.14s2.89,5.39,2.89,9.47c0,3.78-.96,7.07-2.89,9.88s-4.66,5.01-8.2,6.59c-3.55,1.58-7.78,2.37-12.71,2.37Z" fill="#fff"/><path d="M4466.31,387.75c-2.54,0-4.64-.79-6.3-2.37s-2.48-3.52-2.48-5.84.82-4.33,2.48-5.83,3.76-2.25,6.3-2.25,4.64.75,6.3,2.25,2.49,3.45,2.49,5.83-.83,4.26-2.49,5.84-3.75,2.37-6.3,2.37ZM4459.38,455.24v-58.24h13.87v58.24h-13.87Z" fill="#fff"/><path d="M4513.81,482.05c-5.47,0-10.26-.68-14.39-2.02-4.12-1.35-7.3-3.39-9.53-6.12s-3.35-6.15-3.35-10.23c0-2.39.59-4.72,1.79-6.99,1.19-2.27,2.98-4.39,5.37-6.36,2.38-1.96,5.47-3.68,9.24-5.14l6.24,6.58c-3.78,1.31-6.39,2.91-7.86,4.8-1.47,1.89-2.2,3.79-2.2,5.72s.63,3.68,1.91,5.03,3,2.37,5.2,3.06c2.2.69,4.68,1.04,7.45,1.04s5.14-.35,7.11-1.04c1.96-.69,3.5-1.71,4.62-3.06,1.12-1.35,1.68-2.95,1.68-4.8,0-2.31-.81-4.2-2.43-5.66-1.62-1.47-4.82-2.35-9.59-2.66-4.16-.3-7.76-.73-10.8-1.27-3.05-.54-5.66-1.22-7.86-2.02-2.2-.81-4.05-1.7-5.55-2.66-1.5-.96-2.76-1.94-3.75-2.95v-2.66l11.9-12.6,10.29,3.35-13.52,13.17,3.58-6.58c.85.54,1.66,1.04,2.43,1.5.77.46,1.79.89,3.06,1.27s2.95.71,5.03.98,4.77.56,8.09.87c5.23.39,9.45,1.31,12.65,2.77,3.19,1.46,5.56,3.41,7.11,5.83s2.31,5.41,2.31,8.95-.95,6.61-2.83,9.65c-1.89,3.04-4.76,5.5-8.61,7.39-3.85,1.89-8.78,2.83-14.79,2.83ZM4513.81,437.79c-4.85,0-9.03-.96-12.54-2.89-3.5-1.92-6.18-4.47-8.03-7.63s-2.77-6.7-2.77-10.63.94-7.46,2.83-10.58c1.89-3.12,4.57-5.64,8.03-7.57,3.46-1.93,7.63-2.89,12.48-2.89s9.01.96,12.48,2.89c3.47,1.92,6.13,4.45,7.98,7.57,1.85,3.12,2.77,6.64,2.77,10.58s-.92,7.47-2.77,10.63-4.51,5.7-7.98,7.63c-3.46,1.93-7.63,2.89-12.48,2.89ZM4513.81,427.04c3.31,0,5.97-.89,7.97-2.66,2-1.77,3-4.31,3-7.63s-1-5.85-3-7.63c-2.01-1.77-4.66-2.66-7.97-2.66s-6.01.89-8.09,2.66c-2.08,1.78-3.12,4.31-3.12,7.63s1.04,5.86,3.12,7.63c2.08,1.78,4.78,2.66,8.09,2.66ZM4523.4,407.16l-2.66-10.16h23.92v8.66l-21.26,1.5Z" fill="#fff"/><path d="M4557.02,455.24v-58.24h12.25l.92,9.7c1.77-3.39,4.31-6.09,7.63-8.09,3.31-2,7.24-3,11.78-3s8.71.98,12.02,2.95,5.86,4.84,7.63,8.61c1.78,3.78,2.66,8.48,2.66,14.1v33.97h-13.75v-32.59c0-5.01-1.08-8.82-3.24-11.44-2.16-2.62-5.36-3.93-9.59-3.93-2.77,0-5.24.68-7.4,2.02-2.16,1.35-3.87,3.26-5.14,5.72-1.27,2.47-1.91,5.51-1.91,9.13v31.09h-13.87Z" fill="#fff"/><path d="M1132.43,419.94h-59.99c-.16,0-1.96-.44-2.24-.55-4.39-1.61-4.4-8.45,0-10.07.29-.11,2.09-.55,2.24-.55h59.99l-20.93-21.08c-3.46-4.37,1.03-10.75,6.33-8.5,11.1,9.54,20.91,20.67,31.5,30.82,2.85,3.56,2.5,5.61-.31,9-8.27,9.98-20.21,18.94-28.84,28.83-5.12,5.31-12.61-.53-8.82-6.66l21.08-21.25Z" fill="#302e8c"/><path d="M2040.33,419.94h-59.99c-.16,0-1.96-.44-2.24-.55-4.39-1.61-4.4-8.45,0-10.07.29-.11,2.09-.55,2.24-.55h59.99l-20.93-21.08c-3.46-4.37,1.03-10.75,6.33-8.5,11.1,9.54,20.91,20.67,31.5,30.82,2.85,3.56,2.5,5.61-.31,9-8.27,9.98-20.21,18.94-28.84,28.83-5.12,5.31-12.61-.53-8.82-6.66l21.08-21.25Z" fill="#302e8c"/><path d="M2909.62,419.94h-59.99c-.16,0-1.96-.44-2.24-.55-4.39-1.61-4.4-8.45,0-10.07.29-.11,2.09-.55,2.24-.55h59.99l-20.93-21.08c-3.46-4.37,1.03-10.75,6.33-8.5,11.1,9.54,20.91,20.67,31.5,30.82,2.85,3.56,2.5,5.61-.31,9-8.27,9.98-20.21,18.94-28.84,28.83-5.12,5.31-12.61-.53-8.82-6.66l21.08-21.25Z" fill="#302e8c"/><path d="M3698.24,419.94h-59.99c-.16,0-1.96-.44-2.24-.55-4.39-1.61-4.4-8.45,0-10.07.29-.11,2.09-.55,2.24-.55h59.99l-20.93-21.08c-3.46-4.37,1.03-10.75,6.33-8.5,11.1,9.54,20.91,20.67,31.5,30.82,2.85,3.56,2.5,5.61-.31,9-8.27,9.98-20.21,18.94-28.84,28.83-5.12,5.31-12.61-.53-8.82-6.66l21.08-21.25Z" fill="#302e8c"/><path d="M1555.41,198.86v-59.99c0-.16.44-1.96.55-2.24,1.61-4.39,8.45-4.4,10.07,0,.11.29.55,2.09.55,2.24v59.99l21.08-20.93c4.37-3.46,10.75,1.03,8.5,6.33-9.54,11.1-20.67,20.91-30.82,31.5-3.56,2.85-5.61,2.5-9-.31-9.98-8.27-18.94-20.21-28.83-28.84-5.31-5.12.53-12.61,6.66-8.82l21.25,21.08Z" fill="#302e8c"/><path d="M3280.48,215.91c-3.07,0-5.56-2.49-5.56-5.56v-66.13h-1713.92c-3.07,0-5.56-2.49-5.56-5.56s2.49-5.56,5.56-5.56h1719.47c3.07,0,5.56,2.49,5.56,5.56v71.69c0,3.07-2.49,5.56-5.56,5.56Z" fill="#302e8c"/></g></svg>