<?xml version="1.0" encoding="UTF-8"?><svg id="a" xmlns="http://www.w3.org/2000/svg" viewBox="0 0 1080 157"><rect x=".5" y="58.82" width="227.3" height="68.8" rx="34.4" ry="34.4" fill="#ff8a88"/><text transform="translate(40.49 102.43)" fill="#fff" font-family="DMSans-SemiBold, &apos;DM Sans&apos;" font-size="26" font-variation-settings="&apos;opsz&apos; 14, &apos;wght&apos; 600" font-weight="600"><tspan x="0" y="0">Under</tspan><tspan x="75.79" y="0" letter-spacing="-.02em">s</tspan><tspan x="88.94" y="0">tand</tspan></text><rect x="271.13" y="58.82" width="160.2" height="68.8" rx="34.4" ry="34.4" fill="#ff8a88"/><text transform="translate(311.13 102.43)" fill="#fff" font-family="DMSans-SemiBold, &apos;DM Sans&apos;" font-size="26" font-variation-settings="&apos;opsz&apos; 14, &apos;wght&apos; 600" font-weight="600"><tspan x="0" y="0">Define</tspan></text><rect x="476.32" y="58.82" width="150.6" height="68.8" rx="34.4" ry="34.4" fill="#ff8a88"/><text transform="translate(511.78 102.43)" fill="#fff" font-family="DMSans-SemiBold, &apos;DM Sans&apos;" font-size="26" font-variation-settings="&apos;opsz&apos; 14, &apos;wght&apos; 600" font-weight="600"><tspan x="0" y="0">Ide</tspan><tspan x="38.97" y="0" letter-spacing="0em">a</tspan><tspan x="53.69" y="0" letter-spacing="-.01em">t</tspan><tspan x="64.3" y="0">e</tspan></text><rect x="671.91" y="58.82" width="132.4" height="68.8" rx="34.4" ry="34.4" fill="#ff8a88"/><text transform="translate(711.9 102.43)" fill="#fff" font-family="DMSans-SemiBold, &apos;DM Sans&apos;" font-size="26" font-variation-settings="&apos;opsz&apos; 14, &apos;wght&apos; 600" font-weight="600"><tspan x="0" y="0" letter-spacing="-.09em">T</tspan><tspan x="12.92" y="0">e</tspan><tspan x="28.31" y="0" letter-spacing="-.02em">s</tspan><tspan x="41.47" y="0">t</tspan></text><rect x="849.3" y="58.82" width="230.2" height="68.8" rx="34.4" ry="34.4" fill="#ff8a88"/><text transform="translate(889.53 102.43)" fill="#fff" font-family="DMSans-SemiBold, &apos;DM Sans&apos;" font-size="26" font-variation-settings="&apos;opsz&apos; 14, &apos;wght&apos; 600" font-weight="600"><tspan x="0" y="0">Final Design</tspan></text><path d="M254.8,94.49h-13.5s-.44-.1-.5-.12c-.99-.36-.99-1.9,0-2.27.06-.02.47-.12.5-.12h13.5l-4.71-4.74c-.78-.98.23-2.42,1.42-1.91,2.5,2.15,4.7,4.65,7.09,6.94.64.8.56,1.26-.07,2.03-1.86,2.25-4.55,4.26-6.49,6.49-1.15,1.2-2.84-.12-1.99-1.5l4.74-4.78Z" fill="#302e8c"/><path d="M459.07,94.49h-13.5s-.44-.1-.5-.12c-.99-.36-.99-1.9,0-2.27.06-.02.47-.12.5-.12h13.5l-4.71-4.74c-.78-.98.23-2.42,1.42-1.91,2.5,2.15,4.7,4.65,7.09,6.94.64.8.56,1.26-.07,2.03-1.86,2.25-4.55,4.26-6.49,6.49-1.15,1.2-2.84-.12-1.99-1.5l4.74-4.78Z" fill="#302e8c"/><path d="M654.66,94.49h-13.5s-.44-.1-.5-.12c-.99-.36-.99-1.9,0-2.27.06-.02.47-.12.5-.12h13.5l-4.71-4.74c-.78-.98.23-2.42,1.42-1.91,2.5,2.15,4.7,4.65,7.09,6.94.64.8.56,1.26-.07,2.03-1.86,2.25-4.55,4.26-6.49,6.49-1.15,1.2-2.84-.12-1.99-1.5l4.74-4.78Z" fill="#302e8c"/><path d="M832.1,94.49h-13.5s-.44-.1-.5-.12c-.99-.36-.99-1.9,0-2.27.06-.02.47-.12.5-.12h13.5l-4.71-4.74c-.78-.98.23-2.42,1.42-1.91,2.5,2.15,4.7,4.65,7.09,6.94.64.8.56,1.26-.07,2.03-1.86,2.25-4.55,4.26-6.49,6.49-1.15,1.2-2.84-.12-1.99-1.5l4.74-4.78Z" fill="#302e8c"/><path d="M349.97,44.74v-13.5s.1-.44.12-.5c.36-.99,1.9-.99,2.27,0,.02.06.12.47.12.5v13.5l4.74-4.71c.98-.78,2.42.23,1.91,1.42-2.15,2.5-4.65,4.7-6.94,7.09-.8.64-1.26.56-2.03-.07-2.25-1.86-4.26-4.55-6.49-6.49-1.2-1.15.12-2.84,1.5-1.99l4.78,4.74Z" fill="#302e8c"/><polyline points="351.23 31.2 738.11 31.2 738.11 47.33" fill="none" stroke="#302e8c" stroke-linecap="round" stroke-linejoin="round" stroke-width="2.5"/></svg>