<?xml version="1.0" encoding="UTF-8"?><svg id="a" xmlns="http://www.w3.org/2000/svg" viewBox="0 0 512 512"><path d="M298.67,112.85c-13.44-4.05-27.95-6.19-42.67-6.19-82.35,0-149.33,66.99-149.33,149.33s66.99,149.33,149.33,149.33,149.33-66.99,149.33-149.33c0-14.72-2.13-29.23-6.19-42.67h22.19c3.63,13.65,5.33,27.95,5.33,42.67,0,94.08-76.59,170.67-170.67,170.67s-170.67-76.59-170.67-170.67,76.59-170.67,170.67-170.67c14.72,0,29.01,1.92,42.67,5.33v22.19ZM243.2,193.28l22.19-22.19c-2.99-.43-6.19-.43-9.39-.43-47.15,0-85.33,38.19-85.33,85.33s38.19,85.33,85.33,85.33,85.33-38.19,85.33-85.33c0-3.2,0-6.4-.43-9.39l-22.19,22.19c-5.97,29.23-31.79,51.2-62.72,51.2-35.2,0-64-28.8-64-64,0-30.93,21.97-56.75,51.2-62.72ZM481.49,191.36c5.97,20.48,9.17,42.24,9.17,64.64,0,129.49-105.17,234.67-234.67,234.67S21.33,385.49,21.33,256,126.51,21.33,256,21.33c22.4,0,44.16,3.2,64.64,9.17l16.85-17.07C311.89,4.69,284.37,0,255.79,0c-141.01,0-255.79,114.77-255.79,256s114.77,256,256,256,256-114.77,256-256c0-28.59-4.69-55.89-13.23-81.49l-17.07,16.85h-.21ZM512,85.33v15.15l-70.19,70.19h-85.33l-92.8,92.8-15.15-15.15,92.8-92.8v-85.33L410.67,0h16v85.33h85.33ZM476.37,106.67h-71.04V35.84l-42.67,43.31v70.19h70.19l43.31-42.67h.21Z" fill="#fff"/></svg>