<?xml version="1.0" encoding="UTF-8"?><svg id="a" xmlns="http://www.w3.org/2000/svg" viewBox="0 0 24 24"><path d="M6,24h4v-4h-4v4ZM7,21h2v2h-2v-2ZM14,24h4v-4h-4v4ZM15,21h2v2h-2v-2ZM20,20v4h4v-4h-4ZM23,23h-2v-2h2v2ZM0,24h4v-4H0v4ZM1,21h2v2H1v-2ZM13.73,2.49l.7.72-2.01,1.96c-.22.22-.52.34-.82.34s-.6-.11-.83-.34l-1.12-1.06.69-.73,1.13,1.07c.07.07.18.07.24,0l2.02-1.96h0ZM3.77,15.16l-1.12-1.06.69-.73,1.13,1.07c.07.07.18.07.24,0l2.02-1.96.7.72-2.01,1.96c-.22.22-.52.34-.82.34s-.6-.11-.83-.34h0ZM9,14.5h6v3.5h8v-8h-8v3.5h-2.5v-5.5h3.5V0h-8v8h3.5v5.5h-2.5v-3.5H1v8h8v-3.5ZM16,11h6v6h-6v-6ZM9,1h6v6h-6V1ZM8,17H2v-6h6v6ZM21.35,12.35l-1.65,1.65,1.65,1.65-.71.71-1.65-1.65-1.65,1.65-.71-.71,1.65-1.65-1.65-1.65.71-.71,1.65,1.65,1.65-1.65.71.71Z" fill="#fff"/></svg>