<?xml version="1.0" encoding="UTF-8"?><svg id="a" xmlns="http://www.w3.org/2000/svg" viewBox="0 0 24 24"><path d="M4.5,15h8c.83,0,1.5-.67,1.5-1.5v-1c0-.83-.67-1.5-1.5-1.5H4.5c-.83,0-1.5.67-1.5,1.5v1c0,.83.67,1.5,1.5,1.5ZM4,12.5c0-.28.22-.5.5-.5h8c.28,0,.5.22.5.5v1c0,.28-.22.5-.5.5H4.5c-.28,0-.5-.22-.5-.5v-1ZM16.5,20h3c.83,0,1.5-.67,1.5-1.5v-6c0-.83-.67-1.5-1.5-1.5h-3c-.83,0-1.5.67-1.5,1.5v6c0,.83.67,1.5,1.5,1.5ZM16,12.5c0-.28.22-.5.5-.5h3c.28,0,.5.22.5.5v6c0,.28-.22.5-.5.5h-3c-.28,0-.5-.22-.5-.5v-6ZM4.5,20h8c.83,0,1.5-.67,1.5-1.5v-1c0-.83-.67-1.5-1.5-1.5H4.5c-.83,0-1.5.67-1.5,1.5v1c0,.83.67,1.5,1.5,1.5ZM4,17.5c0-.28.22-.5.5-.5h8c.28,0,.5.22.5.5v1c0,.28-.22.5-.5.5H4.5c-.28,0-.5-.22-.5-.5v-1ZM19.5,1H4.5C2.02,1,0,3.02,0,5.5v13c0,2.48,2.02,4.5,4.5,4.5h15c2.48,0,4.5-2.02,4.5-4.5V5.5c0-2.48-2.02-4.5-4.5-4.5ZM23,18.5c0,1.93-1.57,3.5-3.5,3.5H4.5c-1.93,0-3.5-1.57-3.5-3.5v-9.5h22v9.5ZM23,8H1v-2.5c0-1.93,1.57-3.5,3.5-3.5h15c1.93,0,3.5,1.57,3.5,3.5v2.5ZM11,5c0,.55-.45,1-1,1s-1-.45-1-1,.45-1,1-1,1,.45,1,1ZM5,5c0,.55-.45,1-1,1s-1-.45-1-1,.45-1,1-1,1,.45,1,1ZM8,5c0,.55-.45,1-1,1s-1-.45-1-1,.45-1,1-1,1,.45,1,1Z" fill="#fff"/></svg>