<?xml version="1.0" encoding="UTF-8"?><svg id="a" xmlns="http://www.w3.org/2000/svg" viewBox="0 0 512 512"><path d="M373.33,341.33c-5.89,0-10.67,4.78-10.67,10.67v32h-64v-32c0-5.89-4.78-10.67-10.67-10.67s-10.67,4.78-10.67,10.67v138.67H106.67V213.33h10.67c5.89,0,10.67-4.78,10.67-10.67s-4.78-10.67-10.67-10.67h-32C38.27,192,0,230.27,0,277.33v149.33c0,47.06,38.27,85.33,85.33,85.33h213.33c47.06,0,85.33-38.27,85.33-85.33v-74.67c0-5.89-4.78-10.67-10.67-10.67ZM21.33,320h64v64H21.33v-64ZM85.33,213.33v85.33H21.33v-21.33c0-35.29,28.71-64,64-64ZM21.33,426.67v-21.33h64v85.33c-35.29,0-64-28.71-64-64ZM298.67,490.67v-85.33h64v21.33c0,35.29-28.71,64-64,64ZM416,0h-149.33c-52.93,0-96,43.07-96,96v106.67c0,52.93,43.07,96,96,96h149.33c52.93,0,96-43.07,96-96v-106.67c0-52.93-43.07-96-96-96ZM192,96c0-41.17,33.49-74.67,74.67-74.67h149.33c27.65,0,51.8,15.15,64.7,37.55l-89.47,89.47c-4.03,4.03-11.09,4.01-15.04.04l-10.09-10.2c-11.78-11.78-30.31-12.63-43.31-1.79l-119.77,105.09c-6.93-11.33-11.01-24.6-11.01-38.83v-106.67h-.02ZM490.67,202.67c0,41.17-33.49,74.67-74.67,74.67h-149.33c-19.24,0-36.78-7.38-50.03-19.39l120-105.3c4.29-3.54,10.45-3.26,14.34.62l10.07,10.2c12.07,12.07,33.17,12.1,45.27,0l82.75-82.75c1.05,4.95,1.6,10.07,1.6,15.32v106.67-.02ZM234.67,85.33c0-11.78,9.56-21.33,21.33-21.33s21.33,9.56,21.33,21.33-9.56,21.33-21.33,21.33-21.33-9.56-21.33-21.33Z" fill="#fff"/></svg>