<?xml version="1.0" encoding="UTF-8"?><svg id="a" xmlns="http://www.w3.org/2000/svg" viewBox="0 0 24 24"><path d="M7.34,14.7c-.22.22-.34.52-.34.84,0,.32.13.62.36.85l2.48,2.24c.2.19.22.5.04.71-.19.21-.5.22-.71.04l-2.49-2.25c-.44-.43-.67-.98-.67-1.57s.23-1.15.64-1.56l2.51-2.35c.2-.19.52-.18.71.02.19.2.18.52-.02.71l-2.5,2.33h0ZM24,5.5v13c0,2.48-2.02,4.5-4.5,4.5H4.5c-2.48,0-4.5-2.02-4.5-4.5V5.5C0,3.02,2.02,1,4.5,1h15c2.48,0,4.5,2.02,4.5,4.5ZM1,5.5v2.5h22v-2.5c0-1.93-1.57-3.5-3.5-3.5H4.5c-1.93,0-3.5,1.57-3.5,3.5ZM23,18.5v-9.5H1v9.5c0,1.93,1.57,3.5,3.5,3.5h15c1.93,0,3.5-1.57,3.5-3.5ZM4,6c.55,0,1-.45,1-1s-.45-1-1-1-1,.45-1,1,.45,1,1,1ZM7,6c.55,0,1-.45,1-1s-.45-1-1-1-1,.45-1,1,.45,1,1,1ZM10,6c.55,0,1-.45,1-1s-.45-1-1-1-1,.45-1,1,.45,1,1,1ZM14.84,11.64c-.2-.19-.52-.18-.71.02-.19.2-.18.52.02.71l2.49,2.32c.23.23.35.53.35.85,0,.32-.13.62-.34.83l-2.49,2.25c-.2.19-.22.5-.04.71.19.21.5.22.71.04l2.51-2.27c.42-.42.65-.97.65-1.56s-.23-1.15-.66-1.57l-2.5-2.33h0Z" fill="#fff"/></svg>