<?xml version="1.0" encoding="UTF-8"?><svg id="a" xmlns="http://www.w3.org/2000/svg" viewBox="0 0 24 24"><path d="M14.5,19c-1.21,0-2.22.86-2.45,2H.5c-.28,0-.5.22-.5.5s.22.5.5.5h11.55c.23,1.14,1.24,2,2.45,2,1.38,0,2.5-1.12,2.5-2.5s-1.12-2.5-2.5-2.5ZM14.5,23c-.83,0-1.5-.67-1.5-1.5s.67-1.5,1.5-1.5,1.5.67,1.5,1.5-.67,1.5-1.5,1.5ZM18.5,3c-1.38,0-2.5,1.12-2.5,2.5s1.12,2.5,2.5,2.5,2.5-1.12,2.5-2.5-1.12-2.5-2.5-2.5ZM18.5,7c-.83,0-1.5-.67-1.5-1.5s.67-1.5,1.5-1.5,1.5.67,1.5,1.5-.67,1.5-1.5,1.5ZM19.5,0H4.5C2.02,0,0,2.02,0,4.5v8c0,2.48,2.02,4.5,4.5,4.5h15c2.48,0,4.5-2.02,4.5-4.5V4.5c0-2.48-2.02-4.5-4.5-4.5ZM23,12.5c0,1.93-1.57,3.5-3.5,3.5H4.5c-1.93,0-3.5-1.57-3.5-3.5V4.5c0-1.93,1.57-3.5,3.5-3.5h15c1.93,0,3.5,1.57,3.5,3.5v8ZM13.98,5.84c.09.26-.06.55-.32.63-5.25,1.75-5.66,5.82-5.66,7.03,0,.28-.22.5-.5.5s-.5-.22-.5-.5c0-2.16-2.52-3.37-3.56-3.5-.27-.04-.47-.29-.43-.56.04-.27.29-.47.56-.43,1.05.14,2.8.95,3.76,2.36.56-1.91,2.05-4.51,6.02-5.84.26-.09.55.05.63.32h0ZM24,21.5c0,.28-.22.5-.5.5h-4c-.28,0-.5-.22-.5-.5s.22-.5.5-.5h4c.28,0,.5.22.5.5Z" fill="#fff"/></svg>