<?xml version="1.0" encoding="UTF-8"?><svg id="a" xmlns="http://www.w3.org/2000/svg" viewBox="0 0 512 512"><path d="M437.33,298.67h-73.15l61.95-61.95c14.1-14.1,21.87-32.85,21.87-52.8s-7.77-38.7-21.87-52.8l-45.25-45.25c-28.2-28.22-77.42-28.2-105.6,0l-61.95,61.95v-73.15C213.33,33.49,179.84,0,138.67,0h-64c-41.17,0-74.67,33.49-74.67,74.67v330.67c0,58.82,47.85,106.67,106.67,106.67h330.67c41.17,0,74.67-33.49,74.67-74.67v-64c0-41.17-33.49-74.67-74.67-74.67ZM290.37,100.95c20.14-20.14,55.27-20.16,75.43,0l45.25,45.25c10.07,10.07,15.62,23.47,15.62,37.72s-5.55,27.65-15.62,37.72l-198.78,198.78c.7-4.93,1.07-9.96,1.07-15.08v-227.35l77.03-77.03ZM21.33,149.33h170.67v106.67H21.33v-106.67ZM74.67,21.33h64c29.4,0,53.33,23.94,53.33,53.33v53.33H21.33v-53.33c0-29.4,23.94-53.33,53.33-53.33ZM21.33,405.33v-128h170.67v128c0,44.84-38.36,85.31-83.18,85.31s-87.49-38.25-87.49-85.31ZM490.67,437.33c0,29.4-23.94,53.33-53.33,53.33H170.69c3.99-3.01,7.81-6.31,11.41-9.9l160.75-160.77h94.49c29.4,0,53.33,23.94,53.33,53.33v64ZM106.67,426.67c-11.78,0-21.33-9.56-21.33-21.33s9.56-21.33,21.33-21.33,21.33,9.56,21.33,21.33-9.56,21.33-21.33,21.33Z" fill="#fff"/></svg>