<?xml version="1.0" encoding="UTF-8"?><svg id="a" xmlns="http://www.w3.org/2000/svg" viewBox="0 0 24 24"><path d="M20,6h2c1.1,0,2-.9,2-2v-2c0-1.1-.9-2-2-2h-2c-1.1,0-2,.9-2,2H6c0-1.1-.9-2-2-2h-2C.9,0,0,.9,0,2v2c0,1.1.9,2,2,2v12c-1.1,0-2,.9-2,2v2c0,1.1.9,2,2,2h2c1.1,0,2-.9,2-2h12c0,1.1.9,2,2,2h2c1.1,0,2-.9,2-2v-2c0-1.1-.9-2-2-2h-2c-.24,0-.46.04-.67.12l-3.81-3.81c.3-.35.49-.81.49-1.31v-2c0-.5-.18-.95-.49-1.31l3.81-3.81c.21.08.44.12.67.12ZM19,2c0-.55.45-1,1-1h2c.55,0,1,.45,1,1v2c0,.55-.45,1-1,1h-2c-.55,0-1-.45-1-1v-2ZM1,4v-2c0-.55.45-1,1-1h2c.55,0,1,.45,1,1v2c0,.55-.45,1-1,1h-2c-.55,0-1-.45-1-1ZM5,22c0,.55-.45,1-1,1h-2c-.55,0-1-.45-1-1v-2c0-.55.45-1,1-1h2c.55,0,1,.45,1,1v2ZM6,21v-1c0-1.1-.9-2-2-2h-1V6h1c1.1,0,2-.9,2-2v-1h12v1c0,.5.18.95.49,1.31l-3.81,3.81c-.21-.08-.44-.12-.68-.12h-2c-1.1,0-2,.9-2,2v2c0,1.1.9,2,2,2h2c.24,0,.46-.04.68-.12l3.81,3.81c-.3.35-.49.81-.49,1.31v1H6ZM15,11v2c0,.55-.45,1-1,1h-2c-.55,0-1-.45-1-1v-2c0-.55.45-1,1-1h2c.55,0,1,.45,1,1ZM22,19c.55,0,1,.45,1,1v2c0,.55-.45,1-1,1h-2c-.55,0-1-.45-1-1v-2c0-.55.45-1,1-1h2Z" fill="#fff"/></svg>