<?xml version="1.0" encoding="UTF-8"?><svg id="a" xmlns="http://www.w3.org/2000/svg" viewBox="0 0 24 24"><path d="M23.95,20.4l-.98-3.05c-.08-.26-.36-.41-.63-.32-.26.08-.41.36-.32.63l.84,2.62-4.02-2.64c.09-.29.16-.59.16-.91v-4.43c0-1.07-.58-2.07-1.51-2.6l-4-2.29c-.31-.18-.65-.27-.99-.33V2.31l2.15,2.05c.2.19.52.18.71-.02.19-.2.18-.52-.02-.71l-2.35-2.24c-.54-.53-1.41-.53-1.93-.01l-2.41,2.24c-.2.19-.21.51-.02.71.1.11.23.16.36.16.12,0,.24-.05.34-.14l2.16-2.01v4.71c-.34.06-.68.15-.99.33l-4,2.29c-.93.53-1.51,1.53-1.51,2.61v4.43c0,.32.06.62.16.91l-4.01,2.64.84-2.62c.08-.26-.06-.55-.32-.63-.27-.08-.54.06-.63.32L.04,20.44c-.18.74.27,1.48.98,1.65,0,0,2.93.91,2.98.91.21,0,.41-.14.48-.35.08-.26-.06-.54-.33-.63l-2.61-.82,4.09-2.69c.24.32.53.61.88.81l4,2.28c.45.26.98.39,1.49.39.51,0,1.04-.13,1.49-.39l4-2.28c.36-.2.64-.49.88-.81l4.09,2.69-2.61.82c-.26.08-.41.36-.33.63.07.21.26.35.48.35.05,0,2.95-.9,2.95-.9.74-.18,1.19-.92,1-1.69h0ZM11.5,20.94c-.17-.04-.34-.11-.49-.2l-4-2.28c-.62-.35-1.01-1.02-1.01-1.74v-4.43c0-.27.07-.52.17-.76l5.33,3.05v6.37ZM6.78,10.72c.07-.06.14-.12.23-.17l4-2.29c.61-.35,1.37-.35,1.98,0l4,2.29c.08.05.15.11.23.17l-5.22,2.98-5.22-2.98h0ZM18,16.72c0,.72-.39,1.38-1.01,1.74l-4,2.29c-.16.09-.32.15-.49.2v-6.37l5.33-3.05c.1.24.17.49.17.76,0,0,0,4.43,0,4.43Z" fill="#fff"/></svg>