<?xml version="1.0" encoding="UTF-8"?><svg id="a" xmlns="http://www.w3.org/2000/svg" viewBox="0 0 24 24"><path d="M23.92,20.6l-1.39-7.02c.88-.52,1.47-1.48,1.47-2.58,0-1.51-1.12-2.76-2.62-2.97C20.67,3.43,16.71,0,12,0,6.72,0,3.07,3.57,2.22,9.56l-.27,2.38.49.06s.3.03.77.03c.98,0,2.79-.14,4.79-.95.04.51.47.92,1,.92.55,0,1-.45,1-1,0-.3-.13-.56-.33-.74,1.92-1.14,3.86-3.01,5.29-6.04l-.9-.43c-3.27,6.96-9.22,7.31-10.99,7.25l.16-1.35C3.99,4.17,7.2,1,12,1c4.34,0,7.97,3.25,8.44,7.56l.11.44h.45c1.1,0,2,.9,2,2s-.9,2-2,2h-1.29l-.12.33c-.98,2.73-4.16,5.67-7.59,5.67-3.15,0-6.08-2.48-7.3-5h-1.09c.76,1.83,2.38,3.7,4.39,4.86v4.14H2.74c-.54,0-1.04-.25-1.37-.67-.33-.43-.44-.98-.31-1.5h0s0-.02,0-.03l1.35-6.8h-1.02L.08,20.59c-.21.82-.03,1.67.49,2.34.52.68,1.31,1.06,2.16,1.06h6.26v-4.64c.95.41,1.97.64,3,.64s2.05-.24,3-.64v4.64h6.26c.85,0,1.64-.39,2.17-1.06.52-.67.7-1.53.49-2.33h0ZM22.63,22.33c-.33.43-.83.67-1.37.67h-5.26v-4.14c2.01-1.16,3.64-3.03,4.4-4.86h.6c.2,0,.39-.02.58-.06l1.36,6.89c.14.52.02,1.07-.31,1.5h0ZM15,12c-.55,0-1-.45-1-1s.45-1,1-1,1,.45,1,1-.45,1-1,1Z" fill="#fff"/></svg>