<?xml version="1.0" encoding="UTF-8"?><svg id="a" xmlns="http://www.w3.org/2000/svg" viewBox="0 0 24.01 24.03"><path d="M1,6.01c.55,0,1-.45,1-1s-.45-1-1-1-1,.45-1,1,.45,1,1,1ZM19.67,9.01h4.33v.92l-3.31,2.11,1.34,3.83-.75.52-3.26-2.52-3.27,2.53-.72-.54,1.29-3.87-3.31-2.05v-.92h4.35l1.18-4.5h.97l1.18,4.5h0ZM22.01,10.01h-3.11l-.19-.75-.69-2.65-.69,2.66-.19.75h-3.1l1.81,1.12.67.42-.25.75-.75,2.24,1.89-1.46.61-.47.61.47,1.87,1.45-.75-2.15-.26-.75.67-.43,1.86-1.19h0ZM20,20.01c-.55,0-1,.45-1,1s.45,1,1,1,1-.45,1-1-.45-1-1-1ZM5.99,7.43l.3,1.15c.36-.4.73-.79,1.11-1.18,4-3.99,8.67-6.39,11.86-6.39,1.15,0,2.1.31,2.76.97,1.06,1.06,1.22,2.87.64,5.02h1.06c.58-2.4.29-4.44-.99-5.73-2.98-2.98-10.02-.59-16.04,5.42-.24.24-.48.49-.71.73h0ZM6,2.01c.55,0,1-.45,1-1S6.55,0,6,0s-1,.45-1,1,.45,1,1,1h0ZM2.59,14.42l-2.59-.77v-1.31l2.59-.76.76-2.58h1.32l.75,2.58,2.58.75v1.31l-2.58.77-.76,2.59h-1.32l-.77-2.59h0ZM1.31,13l2.08.62.62,2.08.61-2.08,2.08-.61-2.08-.61-.61-2.08-.62,2.08s-2.08.61-2.08.61ZM7,22.69c-2.15.58-3.96.41-5.01-.64-.66-.66-.97-1.61-.97-2.76,0-.64.12-1.35.31-2.08l-.35-1.17-.37-.11c-.96,2.86-.81,5.35.67,6.83,1.29,1.29,3.33,1.57,5.73.99,2.48-.6,5.34-2.14,8.11-4.43l-.79-.66c-2.5,2.02-5.09,3.43-7.33,4.03h0Z" fill="#fff"/></svg>