<?xml version="1.0" encoding="UTF-8"?><svg id="a" xmlns="http://www.w3.org/2000/svg" viewBox="0 0 24 24"><path d="M22.05,9c-1.01-3.4-3.67-6.05-7.05-7.07-.03-1.07-.92-1.94-2-1.94h-2c-1.08,0-1.97.86-2,1.94-3.39,1.01-6.04,3.67-7.05,7.07-1.08.03-1.95.91-1.95,2v2c0,1.09.87,1.97,1.95,2,1.01,3.4,3.67,6.05,7.05,7.06.03,1.07.92,1.94,2,1.94h2c1.08,0,1.97-.86,2-1.94,3.39-1.01,6.04-3.67,7.05-7.07,1.08-.03,1.95-.91,1.95-2v-2c0-1.09-.87-1.97-1.95-2ZM10,2c0-.55.45-1,1-1h2c.55,0,1,.45,1,1v2c0,.55-.45,1-1,1h-2c-.55,0-1-.45-1-1v-2ZM1,13v-2c0-.55.45-1,1-1h2c.55,0,1,.45,1,1v2c0,.55-.45,1-1,1H2c-.55,0-1-.45-1-1ZM14,22c0,.55-.45,1-1,1h-2c-.55,0-1-.45-1-1v-2c0-.55.45-1,1-1h2c.55,0,1,.45,1,1v2ZM15,21.02v-1.01c0-1.1-.9-2-2-2h-2c-1.1,0-2,.9-2,2v1.01c-2.83-.94-5.06-3.17-6-6.01h1c1.1,0,2-.9,2-2v-2c0-1.1-.9-2-2-2h-1c.94-2.84,3.17-5.07,6-6.01v1.01c0,1.1.9,2,2,2h2c1.1,0,2-.9,2-2v-1.01c2.83.94,5.06,3.17,6,6.01h-1c-1.1,0-2,.9-2,2v2c0,1.1.9,2,2,2h1c-.94,2.84-3.17,5.07-6,6.01ZM23,13c0,.55-.45,1-1,1h-2c-.55,0-1-.45-1-1v-2c0-.55.45-1,1-1h2c.55,0,1,.45,1,1v2Z" fill="#fff"/></svg>