<?xml version="1.0" encoding="UTF-8"?><svg id="a" xmlns="http://www.w3.org/2000/svg" viewBox="0 0 24 24"><path d="M19.5,1H4.5C2.02,1,0,3.02,0,5.5v13c0,2.48,2.02,4.5,4.5,4.5h15c2.48,0,4.5-2.02,4.5-4.5V5.5c0-2.48-2.02-4.5-4.5-4.5ZM16,16v6h-8v-6h8ZM1,15v-6h22v6H1ZM4.5,2h15c1.93,0,3.5,1.57,3.5,3.5v2.5H1v-2.5c0-1.93,1.57-3.5,3.5-3.5ZM1,18.5v-2.5h6v6h-2.5c-1.93,0-3.5-1.57-3.5-3.5ZM19.5,22h-2.5v-6h6v2.5c0,1.93-1.57,3.5-3.5,3.5ZM3,5c0-.55.45-1,1-1s1,.45,1,1-.45,1-1,1-1-.45-1-1ZM6,5c0-.55.45-1,1-1s1,.45,1,1-.45,1-1,1-1-.45-1-1ZM9,5c0-.55.45-1,1-1s1,.45,1,1-.45,1-1,1-1-.45-1-1Z" fill="#fff"/></svg>