<?xml version="1.0" encoding="UTF-8"?><svg id="a" xmlns="http://www.w3.org/2000/svg" viewBox="0 0 24 24"><path d="M20,11.5v8c0,2.48-2.02,4.5-4.5,4.5H4.5c-2.48,0-4.5-2.02-4.5-4.5V4.5C0,2.02,2.02,0,4.5,0h11c.38,0,.76.05,1.12.14.27.07.43.34.36.61-.07.27-.34.43-.61.36-.28-.07-.58-.11-.88-.11H4.5c-1.93,0-3.5,1.57-3.5,3.5v15c0,1.93,1.57,3.5,3.5,3.5h11c1.93,0,3.5-1.57,3.5-3.5v-8c0-.28.22-.5.5-.5s.5.22.5.5ZM11.5,18h4c.28,0,.5-.22.5-.5s-.22-.5-.5-.5h-4c-.28,0-.5.22-.5.5s.22.5.5.5ZM24,2.5c0,.67-.26,1.3-.73,1.77l-6.71,6.71c-.66.66-1.54,1.02-2.48,1.02h-1.59c-.28,0-.5-.22-.5-.5v-1.59c0-.92.37-1.82,1.02-2.47L19.73.73c.98-.98,2.56-.98,3.53,0,.47.47.73,1.1.73,1.77h0ZM23,2.5c0-.4-.16-.78-.44-1.06-.58-.58-1.54-.58-2.12,0l-6.71,6.71c-.47.47-.73,1.11-.73,1.77v1.09h1.09c.67,0,1.3-.26,1.77-.73l6.71-6.71c.28-.28.44-.66.44-1.06h0ZM9.15,15.15l-2.59,2.59c-.34.34-.89.35-1.24.03l-1.47-1.4c-.2-.19-.52-.18-.71.02-.19.2-.18.52.02.71l1.48,1.41c.37.34.83.5,1.29.5.49,0,.97-.19,1.35-.56l2.59-2.59c.19-.19.19-.51,0-.71s-.51-.19-.71,0h0ZM9.85,10.15c-.19-.19-.51-.19-.71,0l-2.59,2.59c-.34.34-.89.35-1.24.03l-1.47-1.4c-.2-.19-.52-.18-.71.02-.19.2-.18.52.02.71l1.48,1.41c.37.34.83.5,1.29.5.49,0,.97-.19,1.35-.56l2.59-2.59c.19-.19.19-.51,0-.71h0ZM9.85,5.15c-.19-.2-.51-.2-.71,0l-2.59,2.59c-.34.34-.89.35-1.24.03l-1.47-1.4c-.2-.19-.52-.18-.71.02-.19.2-.18.52.02.71l1.48,1.41c.37.34.83.5,1.29.5.49,0,.97-.19,1.35-.56l2.59-2.59c.19-.2.19-.51,0-.71h0Z" fill="#fff"/></svg>