<?xml version="1.0" encoding="UTF-8"?><svg id="a" xmlns="http://www.w3.org/2000/svg" viewBox="0 0 24 24"><path d="M23.27,23.98l-6.57-6.57c-1.77,1.61-4.12,2.6-6.7,2.6-5.51,0-10-4.49-10-10S4.49,0,10,0c2.49,0,4.76.92,6.51,2.42l-.66.75c-1.58-1.35-3.62-2.18-5.85-2.18C5.04,1,1,5.04,1,10c0,1.63.44,3.16,1.21,4.49l5.76-6.73,3.5,3.5L21.12.17l.75.66-10.36,11.9-3.5-3.5-5.24,6.12c1.64,2.21,4.26,3.65,7.22,3.65,4.96,0,9-4.04,9-9,0-.84-.12-1.65-.34-2.43l.77-.88c.37,1.04.58,2.15.58,3.31,0,2.58-.99,4.92-2.6,6.7l6.57,6.57-.71.71h0Z" fill="#fff"/></svg>