<?xml version="1.0" encoding="UTF-8"?><svg id="a" xmlns="http://www.w3.org/2000/svg" viewBox="0 0 24 24"><path d="M23.99,12.52c-.27,6.44-5.54,11.48-11.99,11.48-4.76,0-9.06-2.83-10.97-7.14,0,.05-.03.09-.03.14v3.5c0,.28-.22.5-.5.5S0,20.78,0,20.5v-3.5C0,15.9.9,15,2,15h3.5c.28,0,.5.22.5.5s-.22.5-.5.5h-3.5c-.08,0-.15.03-.22.05,1.65,4.18,5.71,6.95,10.22,6.95,5.91,0,10.74-4.62,10.99-10.52.01-.27.25-.48.52-.48.28.01.49.24.48.52ZM23.5,3c-.28,0-.5.22-.5.5v3.5s-.02.09-.03.14C21.06,2.83,16.76,0,12,0,5.55,0,.29,5.04.01,11.48c-.01.28.2.51.48.52h.02c.27,0,.49-.21.5-.48C1.26,5.62,6.09,1,12,1c4.52,0,8.57,2.78,10.22,6.95-.07.02-.14.05-.22.05h-3.5c-.28,0-.5.22-.5.5s.22.5.5.5h3.5c1.1,0,2-.9,2-2v-3.5c0-.28-.22-.5-.5-.5ZM15,7.5v1.5h.5c1.38,0,2.5,1.12,2.5,2.5v6.34c0,.64-.52,1.16-1.16,1.16-.22,0-.43-.06-.62-.18l-2.25-1.82h-2.47c-1.38,0-2.5-1.12-2.5-2.5v-1.16l-1.17.95c-.24.15-.45.22-.67.22-.64,0-1.16-.52-1.16-1.16v-5.84c0-1.38,1.12-2.5,2.5-2.5h4c1.38,0,2.5,1.12,2.5,2.5ZM9,12.04v-.54c0-1.38,1.12-2.5,2.5-2.5h2.5v-1.5c0-.83-.67-1.5-1.5-1.5h-4c-.83,0-1.5.67-1.5,1.5v5.84c0,.11.1.16.16.16,0,0,1.84-1.46,1.84-1.46ZM15.5,10h-4c-.83,0-1.5.67-1.5,1.5v3c0,.83.67,1.5,1.5,1.5h2.65c.11,0,.23.04.31.11l2.34,1.9c.1,0,.2-.06.2-.17v-6.34c0-.83-.67-1.5-1.5-1.5Z" fill="#fff"/></svg>