<?xml version="1.0" encoding="UTF-8"?><svg id="a" xmlns="http://www.w3.org/2000/svg" viewBox="0 0 24 24"><path d="M8.5,14.5v-4.55c-1.42-.24-2.5-1.47-2.5-2.95h1c0,1.1.9,2,2,2s2-.9,2-2h1c0,1.48-1.08,2.71-2.5,2.95v2.55l-1,2ZM6,23v-2.62c0-.46-.05-.92-.14-1.38h2.37c-.07-.33-.13-.66-.17-1h-2.46c-.41-1.18-1.11-2.28-2.06-3.17-1.93-1.8-2.82-4.35-2.46-6.98.49-3.53,3.42-6.39,6.97-6.79,2.32-.26,4.55.43,6.27,1.97,1.45,1.29,2.37,3.07,2.61,4.98.02,0,.05,0,.07,0,.32,0,.64.02.95.05-.24-2.21-1.28-4.28-2.96-5.77C13.07.57,10.5-.23,7.94.06,3.94.52.64,3.73.09,7.71c-.41,2.96.59,5.83,2.76,7.85,1.36,1.27,2.15,3.03,2.15,4.82v3.62h6.35c-.38-.3-.72-.64-1.04-1h-4.31ZM11.71,21.83l1.94-1.13c.54.49,1.17.85,1.85,1.07v2.24h3v-2.24c.69-.22,1.32-.58,1.85-1.07l1.94,1.13,1.51-2.59-1.94-1.13c.09-.39.14-.75.14-1.1s-.05-.72-.14-1.1l1.94-1.13-1.51-2.59-1.94,1.13c-.54-.49-1.17-.85-1.85-1.07v-2.24h-3v2.24c-.69.22-1.32.58-1.85,1.07l-1.94-1.13-1.51,2.59,1.94,1.13c-.09.38-.14.75-.14,1.1s.05.72.14,1.1l-1.94,1.13,1.51,2.59ZM13.32,18.56c-.2-.48-.32-1.01-.32-1.56s.11-1.07.31-1.54l-1.74-1.06.5-.86,1.78,1.02c.63-.82,1.57-1.38,2.65-1.51v-2.05h1v2.05c1.09.14,2.03.7,2.67,1.53l1.76-1.04.5.86-1.75,1.03c.2.48.32,1.01.32,1.56s-.12,1.1-.33,1.59l1.76,1-.5.86-1.78-1.01c-.63.82-1.57,1.37-2.65,1.51v2.05h-1v-2.05c-1.09-.14-2.03-.7-2.67-1.53l-1.76,1.04-.5-.86,1.75-1.03h0ZM17,15c-1.1,0-2,.9-2,2s.9,2,2,2,2-.9,2-2-.9-2-2-2ZM17,18c-.55,0-1-.45-1-1s.45-1,1-1,1,.45,1,1-.45,1-1,1Z" fill="#fff"/></svg>