<?xml version="1.0" encoding="UTF-8"?><svg id="a" xmlns="http://www.w3.org/2000/svg" viewBox="0 0 24 24"><path d="M21.5,0H2.5C1.12,0,0,1.12,0,2.5v17.5h7.11l3.9,3.28c.28.25.65.38,1,.38s.7-.12.98-.37l3.99-3.3h7.03V2.5c0-1.38-1.12-2.5-2.5-2.5h0ZM23,19h-6.39l-4.28,3.53c-.19.17-.47.17-.67,0l-4.19-3.53H1V2.5c0-.83.67-1.5,1.5-1.5h19c.83,0,1.5.67,1.5,1.5v16.5ZM14.75,5c-1.2,0-2.19.55-2.75,1.42-.56-.88-1.55-1.42-2.75-1.42-1.79,0-3.25,1.56-3.25,3.47,0,3.33,5.48,7.18,5.72,7.34l.28.2.28-.2c.23-.16,5.72-4.01,5.72-7.34,0-1.91-1.46-3.47-3.25-3.47ZM12,14.79c-1.62-1.19-5-4.12-5-6.32,0-1.36,1.01-2.47,2.25-2.47,1.32,0,2.25.9,2.25,2.2v.8h1v-.8c0-1.3.93-2.2,2.25-2.2,1.24,0,2.25,1.11,2.25,2.47,0,2.19-3.38,5.12-5,6.32Z" fill="#fff"/></svg>