<?xml version="1.0" encoding="UTF-8"?><svg id="a" xmlns="http://www.w3.org/2000/svg" viewBox="0 0 24 24"><path d="M19.26,17c-1.27,0-2.46.49-3.35,1.39l-3,3c-1.04,1.04-2.42,1.61-3.89,1.61H2.62c-.8,0-1.3-.52-1.5-1-.2-.48-.21-1.2.35-1.77l.65-.65c.4.27.88.41,1.38.41.67,0,1.3-.26,1.77-.73l7.53-7.53c.46.15,1.21.26,1.68.26,1.46,0,2.87-.58,3.91-1.62l1-1.01c1.09-1.09,1.68-2.6,1.61-4.15-.07-1.57-.77-2.98-1.98-4-2.17-1.82-5.52-1.59-7.63.52l-.64.64c-1.59,1.59-2.11,3.87-1.5,5.83L1.73,15.73c-.85.85-.96,2.18-.32,3.15l-.65.65c-.76.76-.98,1.86-.57,2.86s1.34,1.62,2.42,1.62h6.39c1.74,0,3.37-.68,4.6-1.9l3-3c.71-.71,1.65-1.1,2.65-1.1,2.13,0,3.74,1.5,3.74,3.5v2.5h1v-2.5c0-2.57-2.04-4.5-4.74-4.5h0ZM11.46,3.09l.64-.64c.96-.96,2.23-1.46,3.48-1.46,1.01,0,2.01.33,2.81,1,.99.83,1.57,2,1.62,3.28.06,1.26-.43,2.5-1.32,3.4l-1,1.01c-.9.89-2.14,1.38-3.4,1.32-1.28-.06-2.44-.63-3.28-1.62-1.49-1.77-1.29-4.53.46-6.28h0ZM2.44,16.44l7.23-7.23c.16.28.34.56.56.81.45.54.98.97,1.57,1.3l-7.24,7.24c-.57.57-1.55.57-2.12,0-.59-.58-.59-1.54,0-2.12Z" fill="#fff"/></svg>