<?xml version="1.0" encoding="UTF-8"?><svg id="a" xmlns="http://www.w3.org/2000/svg" viewBox="0 0 24 24"><path d="M6.5,5c1.38,0,2.5-1.12,2.5-2.5S7.88,0,6.5,0s-2.5,1.12-2.5,2.5,1.12,2.5,2.5,2.5ZM6.5,1c.83,0,1.5.67,1.5,1.5s-.67,1.5-1.5,1.5-1.5-.67-1.5-1.5.67-1.5,1.5-1.5ZM17.5,5c1.38,0,2.5-1.12,2.5-2.5s-1.12-2.5-2.5-2.5-2.5,1.12-2.5,2.5,1.12,2.5,2.5,2.5ZM17.5,1c.83,0,1.5.67,1.5,1.5s-.67,1.5-1.5,1.5-1.5-.67-1.5-1.5.67-1.5,1.5-1.5ZM23.5,2c-.28,0-.5.22-.5.5v3.5H1v-3.5c0-.28-.22-.5-.5-.5s-.5.22-.5.5v3.5c0,.55.45,1,1,1h2.49l-1.37,7.33c-.2,1.05-.13,2.14.19,3.15l1.96,6.17c.07.21.26.35.48.35.05,0,.1,0,.15-.02.26-.08.41-.36.32-.63l-1.96-6.17c-.12-.38-.19-.78-.23-1.18h7.59c.18,0,.27.12.3.17.03.05.09.18.02.34l-1.88,3.77c-.12.25-.02.55.22.67.07.04.15.05.22.05.18,0,.36-.1.45-.28l1.88-3.77c.21-.42.19-.91-.06-1.31-.25-.4-.68-.64-1.15-.64h-3.41l1.42-8h6.4l-2,8.7c-.09.58.08,1.16.46,1.6s.93.69,1.52.69h.84l-1.62,5.35c-.08.26.07.54.33.62.05.01.1.02.15.02.22,0,.41-.14.48-.35l1.71-5.65h1.06l-.3,1c-.12.4-.07.84.15,1.2l2.12,3.56c.09.16.26.24.43.24.09,0,.17-.02.25-.07.24-.14.32-.45.17-.69l-2.12-3.56c-.07-.12-.09-.26-.05-.4l.39-1.29h1.01c.59,0,1.14-.26,1.52-.7.38-.45.55-1.03.45-1.63l-1.64-8.67h2.67c.55,0,1-.45,1-1v-3.5c0-.28-.22-.5-.5-.5h0ZM6.2,15h-3.16c.02-.16.03-.33.06-.49l1.41-7.51h3.1l-1.42,8h0ZM20.99,15.84c.05.29-.04.58-.23.81s-.47.35-.76.35h-5c-.29,0-.57-.13-.76-.35-.19-.22-.27-.51-.24-.76l2.05-8.89h3.26l1.67,8.84h0Z" fill="#fff"/></svg>