<?xml version="1.0" encoding="UTF-8"?><svg id="a" xmlns="http://www.w3.org/2000/svg" viewBox="0 0 512 512"><path d="M462.53,31.42c-36.22-12.71-72.06-21.61-106.56-26.45C321.54.13,284.61-1.19,246.17,1.05c-35.16,2.03-64.3,28.37-69.29,62.66l-7.64,52.48c-4.37.49-8.79,1.05-13.21,1.66-34.47,4.84-70.31,13.74-106.56,26.45C16.26,155.95-4.25,189.31.77,223.62l22.27,153.17c9.79,67.37,103.21,111.06,158.04,131.11,7.55,2.75,15.38,4.12,23.1,4.12,13.65,0,27.03-4.22,38.23-12.39,26.84-19.56,75.54-59.05,100.1-103.53,1.05-1.9,1.45-3.97,1.3-5.97,55.42-21.82,136.09-63.87,145.15-126.23l22.27-153.19c4.99-34.3-15.49-67.67-48.73-79.32l.02.04ZM229.87,482.41c-11.78,8.6-27.29,10.65-41.45,5.46-40.53-14.83-135.74-55.62-144.26-114.13l-22.27-153.17c-3.52-24.26,11.05-47.85,34.67-56.13,34.9-12.25,69.38-20.8,102.46-25.45,2.35-.34,4.71-.64,7.06-.94l-11.48,78.85c-1.22,8.34-1.09,16.68.13,24.96-9.62-12.82-22.4-20.31-35.56-18.39-16.09,2.33-27.73,17.88-32.09,38.27-1.45,6.78,4.33,12.91,11.18,11.93l55.04-7.87c2.75-.38,5.01-1.86,6.53-3.86,5.74,16.19,15.15,31.94,26.47,46.74-1.22.17-2.45.38-3.71.66-34.84,7.72-59.78,35.56-69.5,70.06-2.9,10.28,8.77,18.5,17.66,12.54,31.62-21.14,68.35-34.05,101.55-34.99,12.89,11.35,25.62,21.27,36.65,29.35,11.52,8.43,25.22,12.78,39.08,12.78,2.62,0,5.27-.17,7.91-.49-24.19,35.71-63.38,67.22-86.1,83.82h.02ZM490.13,107.67l-22.27,153.19c-8.51,58.52-103.7,99.31-144.23,114.13-14.19,5.21-29.91,3.01-42.05-5.89-34.67-25.37-114.37-90.67-105.86-149.16l22.27-153.17c3.54-24.3,24.32-42.97,49.41-44.44,11.69-.68,23.23-1,34.6-1,24.62,0,48.41,1.58,71.02,4.76,32.62,4.59,68.05,13.38,102.46,25.45,23.62,8.28,38.21,31.89,34.67,56.13h-.02ZM401.73,240.85c-21.25,28.5-54.12,45.53-89.19,40.58-35.05-4.97-61.8-30.51-74.22-63.77-3.86-10.33,7.57-19.67,17.19-14.27,45.12,25.32,83.37,30.76,133.78,19.05,10.69-2.47,18.99,9.62,12.44,18.41h0ZM421.27,151.42c1.45,6.76-4.33,12.91-11.18,11.93l-55.04-7.87c-6.85-.98-10.67-8.49-7.38-14.57,9.9-18.37,25.41-30.08,41.54-27.75,16.09,2.33,27.73,17.88,32.09,38.27h-.02ZM243.56,126.04c9.9-18.37,25.41-30.08,41.54-27.75,16.09,2.33,27.73,17.88,32.09,38.27,1.45,6.78-4.33,12.91-11.18,11.93l-55.04-7.87c-6.85-.98-10.67-8.49-7.38-14.57h-.02Z" fill="#fff"/></svg>