<?xml version="1.0" encoding="UTF-8"?><svg id="a" xmlns="http://www.w3.org/2000/svg" viewBox="0 0 24 24"><path d="M24,16.39l-3.37-3.39h-6.25l-3.39,3.39,6.52,7.61,6.5-7.61ZM22.21,16h-2.38l-.67-2h1.05l2,2ZM16.27,17h2.45l-1.23,3.68-1.23-3.68h0ZM16.22,16l.67-2h1.22l.67,2h-2.56ZM14.79,14h1.05l-.67,2h-2.38l2-2ZM15.22,17l1.53,4.59-3.93-4.59h2.4ZM18.25,21.59l1.53-4.59h2.4l-3.93,4.59ZM1,23v-9h9.55l1-1H1v-6.5c0-.83.67-1.5,1.5-1.5h19c.83,0,1.5.67,1.5,1.5v6.05l1,1v-7.05c0-1.38-1.12-2.5-2.5-2.5h-3.5V1.5c0-.83-.67-1.5-1.5-1.5H7.5c-.83,0-1.5.67-1.5,1.5v2.5h-3.5c-1.38,0-2.5,1.12-2.5,2.5v17.5h14.87l-.86-1H1ZM7,1.5c0-.28.22-.5.5-.5h9c.27,0,.5.22.5.5v2.5H7V1.5Z" fill="#fff"/></svg>