<?xml version="1.0" encoding="UTF-8"?><svg id="a" xmlns="http://www.w3.org/2000/svg" viewBox="0 0 24 24"><path d="M19.5,3H4.5C2.02,3,0,5.02,0,7.5v9c0,2.48,2.02,4.5,4.5,4.5h15c2.48,0,4.5-2.02,4.5-4.5V7.5c0-2.48-2.02-4.5-4.5-4.5ZM23,16.5c0,1.93-1.57,3.5-3.5,3.5H4.5c-1.93,0-3.5-1.57-3.5-3.5V7.5c0-1.93,1.57-3.5,3.5-3.5h15c1.93,0,3.5,1.57,3.5,3.5v9ZM21,7.5c0,.28-.22.5-.5.5h-5c-.28,0-.5-.22-.5-.5s.22-.5.5-.5h5c.28,0,.5.22.5.5ZM21,10.5c0,.28-.22.5-.5.5h-5c-.28,0-.5-.22-.5-.5s.22-.5.5-.5h5c.28,0,.5.22.5.5ZM21,13.5c0,.28-.22.5-.5.5h-5c-.28,0-.5-.22-.5-.5s.22-.5.5-.5h5c.28,0,.5.22.5.5ZM19,16.5c0,.28-.22.5-.5.5h-3c-.28,0-.5-.22-.5-.5s.22-.5.5-.5h3c.28,0,.5.22.5.5ZM11.75,10h-1.9l-.68-1.91c-.18-.49-.65-.81-1.17-.81s-.99.33-1.17.82l-.68,1.9h-1.9c-.52,0-.99.33-1.17.82-.18.49-.03,1.05.37,1.39l1.52,1.24-.61,1.94c-.16.51.02,1.06.44,1.38.22.16.48.25.75.25.25,0,.49-.07.7-.21l1.76-1.18,1.79,1.16c.44.29,1.02.26,1.44-.06.42-.32.59-.88.43-1.38l-.63-1.91,1.52-1.23c.4-.34.55-.89.37-1.38-.18-.49-.65-.82-1.17-.82h0ZM11.92,11.44l-1.77,1.44c-.16.13-.22.35-.16.54l.73,2.24c.03.1,0,.21-.08.27-.08.06-.2.07-.29.01l-2.06-1.35c-.17-.11-.39-.11-.55,0l-2.03,1.36c-.07.05-.16.08-.29,0-.09-.06-.12-.18-.09-.28l.71-2.26c.06-.19,0-.41-.16-.54l-1.78-1.44c-.08-.07-.11-.18-.07-.27.04-.1.13-.16.24-.16h2.25c.21,0,.4-.13.47-.33l.79-2.23c.07-.19.4-.19.47,0l.8,2.23c.07.2.26.33.47.33h2.25c.1,0,.2.07.23.16.04.1,0,.21-.07.27h0Z" fill="#fff"/></svg>