<?xml version="1.0" encoding="UTF-8"?><svg id="a" xmlns="http://www.w3.org/2000/svg" viewBox="0 0 512 512"><path d="M330.67,0h-149.33c-52.93,0-96,43.07-96,96v320c0,52.93,43.07,96,96,96h149.33c52.93,0,96-43.07,96-96V96c0-52.93-43.07-96-96-96ZM315.88,21.33l-6.93,20.78c-4.37,13.1-16.58,21.89-30.36,21.89h-45.16c-13.78,0-25.98-8.79-30.36-21.89l-6.93-20.78h119.74ZM405.33,416c0,41.17-33.49,74.67-74.67,74.67h-149.33c-41.17,0-74.67-33.49-74.67-74.67V96c0-38.61,29.59-70.12,67.22-73.92l8.92,26.77c7.27,21.8,27.61,36.46,50.6,36.46h45.16c23,0,43.33-14.66,50.6-36.46l8.92-26.77c37.63,3.8,67.22,35.29,67.22,73.92v320h.02Z" fill="#fff"/><path d="M288,426.67h-64c-5.89,0-10.67,4.78-10.67,10.67s4.78,10.67,10.67,10.67h64c5.89,0,10.67-4.78,10.67-10.67s-4.78-10.67-10.67-10.67Z" fill="#fff"/></svg>