<?xml version="1.0" encoding="UTF-8"?><svg id="a" xmlns="http://www.w3.org/2000/svg" viewBox="0 0 512 512"><path d="M375.21,183.13l15,15.15-128.83,127.62c-10.3,10.22-23.91,15.34-37.5,15.34s-27.01-5.03-37.31-15.13l-64.75-63.81,14.95-15.19,64.73,63.79c12.39,12.12,32.51,12.05,44.89-.15l128.83-127.62ZM512,256c0,141.16-114.84,256-256,256S0,397.16,0,256,114.84,0,256,0s256,114.84,256,256ZM490.67,256c0-129.39-105.28-234.67-234.67-234.67S21.33,126.61,21.33,256s105.28,234.67,234.67,234.67,234.67-105.28,234.67-234.67Z" fill="#fff"/></svg>