<?xml version="1.0" encoding="UTF-8"?><svg id="a" xmlns="http://www.w3.org/2000/svg" viewBox="0 0 24 24"><path d="M19.5,9H6.5c-2.48,0-4.5,2.02-4.5,4.5v4c0,2.48,2.02,4.5,4.5,4.5h3.58l1.93,1.62c.28.25.64.38,1,.38s.7-.12.98-.37l1.98-1.63h3.54c2.48,0,4.5-2.02,4.5-4.5v-4c0-2.48-2.02-4.5-4.5-4.5h0ZM23,17.5c0,1.93-1.57,3.5-3.5,3.5h-3.72c-.12,0-.23.04-.32.11l-2.13,1.76c-.19.17-.47.17-.67,0l-2.07-1.75c-.09-.08-.2-.12-.32-.12h-3.76c-1.93,0-3.5-1.57-3.5-3.5v-4c0-1.93,1.57-3.5,3.5-3.5h13c1.93,0,3.5,1.57,3.5,3.5,0,0,0,4,0,4ZM1,4.5v5c0,.28-.22.5-.5.5s-.5-.22-.5-.5v-5C0,2.02,2.02,0,4.5,0h13c2.48,0,4.5,2.02,4.5,4.5v2c0,.28-.22.5-.5.5s-.5-.22-.5-.5v-2c0-1.93-1.57-3.5-3.5-3.5H4.5c-1.93,0-3.5,1.57-3.5,3.5ZM10,6.5c0-.28.22-.5.5-.5h7c.28,0,.5.22.5.5s-.22.5-.5.5h-7c-.28,0-.5-.22-.5-.5ZM7.5,6c.28,0,.5.22.5.5s-.22.5-.5.5h-3c-.28,0-.5-.22-.5-.5s.22-.5.5-.5h3ZM11.5,4h-7c-.28,0-.5-.22-.5-.5s.22-.5.5-.5h7c.28,0,.5.22.5.5s-.22.5-.5.5ZM18,3.5c0,.28-.22.5-.5.5h-3c-.28,0-.5-.22-.5-.5s.22-.5.5-.5h3c.28,0,.5.22.5.5ZM21.97,14.83c.07.2.01.42-.15.55l-1.18.96.49,1.49c.07.2,0,.42-.17.55s-.4.14-.58.02l-1.38-.9-1.35.91c-.08.06-.18.08-.28.08-.11,0-.21-.03-.3-.1-.17-.13-.24-.35-.18-.55l.47-1.51-1.19-.97c-.16-.14-.22-.36-.15-.55.07-.2.26-.33.47-.33h1.5l.53-1.49c.07-.2.26-.32.47-.32s.4.13.47.32l.53,1.49h1.5c.21,0,.4.13.47.33h0ZM15.97,14.83c.07.2.01.42-.15.55l-1.18.96.49,1.49c.07.2,0,.42-.17.55s-.4.14-.58.02l-1.38-.9-1.35.91c-.08.06-.18.08-.28.08-.11,0-.21-.03-.3-.1-.17-.13-.24-.35-.18-.55l.47-1.51-1.19-.97c-.16-.14-.22-.36-.15-.55.07-.2.26-.33.47-.33h1.5l.53-1.49c.07-.2.26-.32.47-.32s.4.13.47.32l.53,1.49h1.5c.21,0,.4.13.47.33h0ZM9.97,14.83c.07.2.01.42-.15.55l-1.18.96.49,1.49c.07.2,0,.42-.17.55s-.4.14-.58.02l-1.38-.9-1.35.91c-.08.06-.18.08-.28.08-.11,0-.21-.03-.3-.1-.17-.13-.24-.35-.18-.55l.47-1.51-1.19-.97c-.16-.14-.22-.36-.15-.55.07-.2.26-.33.47-.33h1.5l.53-1.49c.07-.2.26-.32.47-.32s.4.13.47.32l.53,1.49h1.5c.21,0,.4.13.47.33h0Z" fill="#fff"/></svg>