<?xml version="1.0" encoding="UTF-8"?><svg id="a" xmlns="http://www.w3.org/2000/svg" viewBox="0 0 1200 300"><path d="M253.93,70.79c-4.94-4.94-12.95-4.94-17.89,0l-31.96,31.96-29.1-29.1c-4.94-4.94-12.95-4.94-17.9,0l-38.05,38.05c-.31.31-.6.63-.87.96-1.89,2.32-2.84,5.15-2.84,7.99,0,3.24,1.24,6.48,3.71,8.95l47,47,38.05-38.05,12.06,12.06-50.11,50.11-59.05-59.05c-4.94-4.94-12.95-4.94-17.9,0s-4.94,12.95,0,17.89l68,68c2.47,2.47,5.71,3.71,8.95,3.71s6.48-1.24,8.95-3.71l68-68c4.94-4.94,4.94-12.95,0-17.89l-21-21,31.96-31.96c4.94-4.94,4.94-12.95,0-17.9ZM166.02,140.8l-20.15-20.15,20.15-20.15,20.15,20.15-20.15,20.15Z" fill="#fff"/><path d="M354.63,243.27V56.73h35.18v154.56h85.28v31.98h-120.45Z" fill="#fff"/><path d="M486.27,243.27l49.03-186.54h61.29l49.03,186.54h-36.24l-10.13-41.04h-66.62l-10.13,41.04h-36.24ZM540.9,169.72h50.1l-22.65-90.87h-4.8l-22.65,90.87Z" fill="#fff"/><path d="M668.01,243.27V56.73h35.18v186.54h-35.18Z" fill="#fff"/><path d="M725.57,243.27l49.03-186.54h61.29l49.03,186.54h-36.24l-10.13-41.04h-66.62l-10.13,41.04h-36.24ZM780.2,169.72h50.1l-22.65-90.87h-4.8l-22.65,90.87Z" fill="#fff"/><path d="M1036.29,247c-12.79,0-24.38-2.89-34.78-8.66-10.39-5.77-18.65-14.21-24.78-25.32-6.13-11.1-9.19-24.65-9.19-40.64v-44.77c0-23.98,6.75-42.41,20.25-55.3,13.5-12.88,31.8-19.32,54.9-19.32s40.64,6.09,53.16,18.25c12.52,12.17,18.79,28.65,18.79,49.43v1.07h-34.64v-2.13c0-6.57-1.38-12.52-4.13-17.85-2.76-5.33-6.89-9.55-12.39-12.66-5.51-3.11-12.44-4.66-20.79-4.66-12.44,0-22.21,3.82-29.31,11.46-7.11,7.64-10.66,18.03-10.66,31.18v45.84c0,12.97,3.55,23.41,10.66,31.31,7.1,7.91,17.06,11.86,29.85,11.86s22.12-3.37,27.98-10.13c5.86-6.75,8.79-15.28,8.79-25.58v-2.66h-44.24v-29.85h78.88v95.4h-32.51v-17.85h-4.8c-1.25,3.02-3.24,6.22-6,9.59-2.76,3.38-6.89,6.22-12.39,8.53-5.51,2.31-13.06,3.46-22.65,3.46Z" fill="#fff"/></svg>