<?xml version="1.0" encoding="UTF-8"?><svg id="a" xmlns="http://www.w3.org/2000/svg" viewBox="0 0 1200 300"><circle cx="170.03" cy="150" r="146" fill="#302e87"/><path d="M252.74,71.35c-4.96-4.96-13-4.96-17.96,0l-32.07,32.07-29.2-29.2c-4.96-4.96-13-4.96-17.96,0l-38.18,38.18c-.31.31-.6.63-.87.96-1.9,2.33-2.85,5.17-2.85,8.01,0,3.25,1.24,6.5,3.72,8.98l47.16,47.16,38.18-38.18,12.1,12.1-50.28,50.28-59.26-59.26c-4.96-4.96-13-4.96-17.96,0-4.96,4.96-4.96,13,0,17.96l68.23,68.24c2.48,2.48,5.73,3.72,8.98,3.72s6.5-1.24,8.98-3.72l68.23-68.24c4.96-4.96,4.96-13,0-17.96l-21.08-21.08,32.07-32.07c4.96-4.96,4.96-13,0-17.96ZM164.53,141.6l-20.22-20.22,20.22-20.22,20.22,20.22-20.22,20.22Z" fill="#fff"/><path d="M413.36,244.43V57.25h35.3v155.09h85.57v32.09h-120.86Z" fill="#302e87"/><path d="M545.45,244.43l49.2-187.18h61.5l49.2,187.18h-36.37l-10.16-41.18h-66.85l-10.16,41.18h-36.37ZM600.27,170.63h50.27l-22.73-91.18h-4.81l-22.73,91.18Z" fill="#302e87"/><path d="M727.82,244.43V57.25h35.3v187.18h-35.3Z" fill="#302e87"/><path d="M785.57,244.43l49.2-187.18h61.5l49.2,187.18h-36.37l-10.16-41.18h-66.85l-10.16,41.18h-36.37ZM840.39,170.63h50.27l-22.73-91.18h-4.81l-22.73,91.18Z" fill="#302e87"/><path d="M1097.36,248.17c-12.83,0-24.47-2.9-34.9-8.69-10.43-5.79-18.72-14.26-24.87-25.4-6.15-11.14-9.23-24.73-9.23-40.78v-44.92c0-24.07,6.77-42.56,20.32-55.49,13.55-12.92,31.91-19.39,55.08-19.39s40.78,6.11,53.35,18.32c12.57,12.21,18.85,28.75,18.85,49.6v1.07h-34.76v-2.14c0-6.59-1.38-12.57-4.14-17.92-2.77-5.35-6.91-9.58-12.43-12.7-5.53-3.12-12.48-4.68-20.86-4.68-12.48,0-22.29,3.84-29.41,11.5-7.13,7.67-10.7,18.1-10.7,31.29v45.99c0,13.01,3.56,23.49,10.7,31.42,7.13,7.93,17.11,11.9,29.95,11.9s22.19-3.38,28.08-10.16c5.88-6.77,8.82-15.33,8.82-25.67v-2.67h-44.39v-29.95h79.15v95.73h-32.62v-17.92h-4.81c-1.25,3.03-3.25,6.24-6.02,9.63-2.77,3.39-6.91,6.24-12.43,8.56-5.53,2.31-13.1,3.48-22.73,3.48Z" fill="#302e87"/></svg>