<?xml version="1.0" encoding="UTF-8"?><svg id="a" xmlns="http://www.w3.org/2000/svg" viewBox="0 0 1200 300"><path d="M169.4,70.4c-4.96-4.96-13.01-4.96-17.98,0l-32.12,32.12-29.24-29.24c-4.96-4.96-13.01-4.96-17.99,0l-38.24,38.24c-.31.31-.6.63-.87.96-1.9,2.33-2.85,5.18-2.85,8.03,0,3.26,1.25,6.51,3.73,8.99l47.23,47.23,38.24-38.24,12.12,12.12-50.36,50.36-59.34-59.34c-4.96-4.96-13.01-4.96-17.99,0s-4.96,13.01,0,17.98l68.34,68.34c2.48,2.48,5.74,3.73,8.99,3.73s6.51-1.25,8.99-3.73l68.34-68.34c4.96-4.96,4.96-13.01,0-17.98l-21.1-21.1,32.12-32.12c4.96-4.96,4.96-13.01,0-17.99v-.02ZM81.05,140.76l-20.25-20.25,20.25-20.25,20.25,20.25-20.25,20.25Z" fill="#fff"/><path d="M269.26,243V57h35.08v154.11h85.03v31.89h-120.11Z" fill="#fff"/><path d="M400.9,243l48.89-186h61.11l48.89,186h-36.14l-10.1-40.92h-66.43l-10.1,40.92h-36.14,0ZM455.37,169.66h49.95l-22.58-90.61h-4.79l-22.58,90.61h0Z" fill="#fff"/><path d="M582.64,243V57h35.08v186h-35.08Z" fill="#fff"/><path d="M640.2,243l48.89-186h61.11l48.89,186h-36.14l-10.1-40.92h-66.43l-10.1,40.92h-36.14.01ZM694.67,169.66h49.95l-22.58-90.61h-4.79l-22.58,90.61h0Z" fill="#fff"/><path d="M948.08,243c-12.26,0-23.37-2.77-33.34-8.3-9.96-5.53-17.88-13.62-23.76-24.27-5.88-10.64-8.81-23.63-8.81-38.96v-42.92c0-22.99,6.47-40.66,19.41-53.02,12.94-12.35,30.49-18.52,52.63-18.52s38.96,5.84,50.97,17.5c12,11.67,18.01,27.47,18.01,47.39v1.03h-33.21v-2.04c0-6.3-1.32-12-3.96-17.11-2.65-5.11-6.61-9.16-11.88-12.14-5.28-2.98-11.93-4.47-19.93-4.47-11.93,0-21.29,3.66-28.1,10.99-6.82,7.32-10.22,17.29-10.22,29.89v43.95c0,12.43,3.4,22.44,10.22,30.02,6.81,7.58,16.36,11.37,28.62,11.37s21.21-3.23,26.82-9.71c5.62-6.47,8.43-14.65,8.43-24.52v-2.55h-42.41v-28.62h75.62v91.46h-31.17v-17.11h-4.6c-1.2,2.9-3.11,5.96-5.75,9.19-2.65,3.24-6.61,5.96-11.88,8.18-5.28,2.21-12.52,3.32-21.71,3.32h0Z" fill="#fff"/></svg>