<?xml version="1.0" encoding="UTF-8"?><svg id="a" xmlns="http://www.w3.org/2000/svg" viewBox="0 0 256 256"><path d="M200.51,59.05c-4.35-4.35-11.39-4.35-15.74,0l-28.12,28.12-25.6-25.6c-4.35-4.35-11.4-4.35-15.74,0l-33.47,33.47c-.27.27-.53.55-.76.85-1.66,2.04-2.5,4.53-2.5,7.03,0,2.85,1.09,5.7,3.26,7.87l41.34,41.34,33.47-33.47,10.61,10.61-44.08,44.08-51.95-51.95c-4.35-4.35-11.4-4.35-15.74,0-4.35,4.35-4.35,11.4,0,15.74l59.82,59.82c2.17,2.17,5.02,3.26,7.87,3.26s5.7-1.09,7.87-3.26l59.82-59.82c4.35-4.35,4.35-11.4,0-15.74l-18.48-18.48,28.12-28.12c4.35-4.35,4.35-11.4,0-15.74ZM123.18,120.64l-17.73-17.73,17.73-17.73,17.73,17.73-17.73,17.73Z" fill="#302e87"/></svg>