<?xml version="1.0" encoding="UTF-8"?><svg id="a" xmlns="http://www.w3.org/2000/svg" viewBox="0 0 300 300"><g id="b"><path d="M0,141.27l3.33-22.74C15.46,61.45,61.43,15.52,118.51,3.39L141.26.06c5.81.25,11.79-.34,17.58,0,131.74,7.7,190.44,172.09,91.75,261.34C157.31,345.76,7.13,283.23,0,158.84v-17.58ZM20.69,157.21c5.61,101.28,121.42,157.49,204.58,98.21,75.16-53.58,71.43-166.28-6.68-215.17C129.7-15.39,14.92,53.15,20.69,157.21Z" fill="#fff"/><path d="M139.5,194.59v-113.38c0-.3.83-3.7,1.03-4.24,3.05-8.29,15.98-8.31,19.03,0,.2.54,1.03,3.94,1.03,4.24v113.38l39.84-39.56c8.25-6.54,20.31,1.95,16.07,11.97-18.03,20.98-39.07,39.51-58.25,59.54-6.74,5.39-10.61,4.72-17.01-.59-18.86-15.63-35.79-38.19-54.49-54.52-10.04-9.68,1-23.83,12.58-16.68l40.15,39.84Z" fill="#fff"/></g></svg>