<?xml version="1.0" encoding="UTF-8"?><svg id="a" xmlns="http://www.w3.org/2000/svg" viewBox="0 0 24 24"><path d="M7.01,24c-1.86,0-3.63-.73-4.96-2.05C.55,20.45-.18,18.38.04,16.26c.29-2.82,2.33-5.23,5.07-6,1.3-.36,2.61-.35,3.89.03L18.56.73c.47-.47,1.1-.73,1.77-.73h2.17c.83,0,1.5.67,1.5,1.5v2.17c0,.67-.26,1.3-.73,1.77l-1.56,1.56h-2.71v3h-3v2.71l-2.3,2.3c.39,1.28.4,2.59.03,3.89-.77,2.74-3.18,4.78-6,5.07-.24.02-.49.04-.73.04h0ZM7,11c-.54,0-1.09.08-1.63.23-2.35.66-4.09,2.72-4.34,5.14-.19,1.82.44,3.6,1.72,4.88,1.28,1.28,3.06,1.91,4.88,1.73,2.41-.25,4.48-1.99,5.14-4.34.34-1.2.3-2.41-.11-3.6l-.1-.3,2.44-2.44v-3.29h3v-3h3.29l1.27-1.27c.28-.28.44-.66.44-1.06V1.5c0-.28-.23-.5-.5-.5h-2.17c-.4,0-.78.16-1.06.44l-10,10-.3-.1c-.65-.23-1.31-.34-1.97-.34h0ZM5,18c0,.55.45,1,1,1s1-.45,1-1-.45-1-1-1-1,.45-1,1Z" fill="#fff"/></svg>